<?xml version="1.0" standalone="no"?>
<!DOCTYPE svg PUBLIC "-//W3C//DTD SVG 1.1//EN" "http://www.w3.org/Graphics/SVG/1.1/DTD/svg11.dtd" >
<svg xmlns="http://www.w3.org/2000/svg">
<metadata></metadata>
<defs>
<font id="deadhistorybold" horiz-adv-x="1265" >
<font-face units-per-em="2048" ascent="1638" descent="-410" />
<missing-glyph horiz-adv-x="573" />
<glyph horiz-adv-x="0" />
<glyph unicode="&#xd;" horiz-adv-x="0" />
<glyph unicode=" "  horiz-adv-x="573" />
<glyph unicode="&#x09;" horiz-adv-x="573" />
<glyph unicode="&#xa0;" horiz-adv-x="573" />
<glyph unicode="!" horiz-adv-x="614" d="M106 145q0 72 53.5 125.5t125.5 53.5t125 -53.5t53 -125.5q0 -74 -53.5 -126t-124.5 -52q-72 0 -125.5 52t-53.5 126zM150 618v738q0 55 39.5 95t95.5 40q55 0 95 -40t40 -95v-738q0 -55 -40 -95t-95 -40t-95 40t-40 95z" />
<glyph unicode="&#x22;" horiz-adv-x="1024" d="M170 1194v227q0 55 40 95t95 40t95 -39.5t40 -95.5v-532h-82q0 125 -41 207q-49 98 -147 98zM580 1194v227q0 55 39.5 95t95.5 40q55 0 95 -39.5t40 -95.5v-532h-82q0 125 -41 207q-49 98 -147 98z" />
<glyph unicode="#" horiz-adv-x="1187" d="M102 715q0 55 40 95t96 40h102v176h-102q-55 0 -95.5 40t-40.5 95t40 95t96 40h102v160q0 33 22.5 55.5t55.5 22.5t55.5 -22.5t22.5 -55.5v-160h196v160q0 33 22.5 55.5t55.5 22.5t55.5 -22.5t22.5 -55.5v-160h102q55 0 95 -39.5t40 -95.5q0 -55 -39.5 -95t-95.5 -40 h-102v-176h102q55 0 95 -40t40 -95t-39.5 -95t-95.5 -40h-102v-152q0 -33 -22.5 -55.5t-55.5 -22.5t-55.5 22.5t-22.5 55.5v152h-196v-152q0 -33 -22.5 -55.5t-55.5 -22.5t-55.5 22.5t-22.5 55.5v152h-102q-55 0 -95.5 39.5t-40.5 95.5zM496 850h196v176h-196v-176z" />
<glyph unicode="$" horiz-adv-x="1173" d="M113 260q0 66 37.5 112t103.5 46q29 0 114 -32t148 -40v256q-176 53 -264 129q-117 100 -117 264t113 279q106 106 268 133v129q0 33 22.5 55.5t55.5 22.5t55.5 -22.5t22.5 -55.5v-123q147 -10 227 -62.5t80 -131.5q0 -61 -37 -101.5t-96 -40.5q-41 0 -88 17 q-68 23 -86 26v-231q25 -8 63 -21q127 -43 211 -125q109 -109 109 -260q0 -186 -109 -299q-100 -104 -274 -131v-131q0 -33 -22.5 -55.5t-55.5 -22.5t-55.5 22.5t-22.5 55.5v123q-152 8 -266 59q-137 61 -137 156zM457 1022q0 -47 59 -78v168q-59 -29 -59 -90zM672 360 q61 31 61 89q0 59 -61 94v-183z" />
<glyph unicode="%" horiz-adv-x="2205" d="M117 1018q0 203 104.5 338t282.5 135t287 -137q100 -133 100 -336t-100 -334q-109 -139 -287 -139t-285 139q-102 131 -102 334zM358 1018q0 -111 37 -180q41 -76 109 -76t108 76q37 69 37 180t-39 183.5t-106 72.5q-68 0 -107 -73t-39 -183zM623 94q0 35 18 70l664 1253 q41 78 129 78q57 0 100 -41t43 -104q0 -33 -18 -68l-664 -1253q-41 -78 -129 -78q-59 0 -101 42t-42 101zM1327 440q0 203 104.5 338t282.5 135t287 -137q100 -133 100 -336t-100 -334q-109 -139 -287 -139t-284 139q-102 131 -103 334zM1569 440q0 -111 37 -180 q41 -76 108 -76q68 0 109 76q37 69 37 180t-39 183.5t-107 72.5t-106.5 -72.5t-38.5 -183.5z" />
<glyph unicode="&#x26;" horiz-adv-x="1638" d="M139 473q0 131 70 243.5t186 180.5q-84 90 -84 231q0 152 106.5 257.5t256.5 105.5q152 0 257 -105.5t105 -257.5q0 -207 -178 -313l305 -303v170q0 47 -32.5 80t-79.5 33h-35v59h385v-59h-35q-45 0 -79 -33t-34 -80v-209q0 -33 -2 -49l226 -225q39 -39 39 -95 q0 -57 -39.5 -96t-96.5 -39q-55 0 -94 39l-151 152q-168 -193 -439 -193q-229 0 -393 148.5t-164 357.5zM408 432q0 -141 105 -242.5t255 -101.5q185 0 291 143l-488 490q-164 -102 -163 -289zM580 1128q0 -35 69 -104l25 -25q94 43 94 129q0 39 -27.5 67t-66.5 28 t-66.5 -28t-27.5 -67z" />
<glyph unicode="'" horiz-adv-x="614" d="M170 1194v227q0 55 40 95t95 40t95 -39.5t40 -95.5v-532h-82q0 125 -41 207q-49 98 -147 98z" />
<glyph unicode="(" horiz-adv-x="921" d="M143 707q0 319 115 538q109 213 367 416q39 31 84 31q57 0 95 -40t38 -93q0 -63 -54 -107q-203 -160 -288 -324q-90 -174 -90 -421q0 -248 90 -422q85 -164 288 -324q53 -43 54 -106q0 -53 -38 -93.5t-95 -40.5q-45 0 -84 31q-258 203 -367 416q-115 219 -115 539z" />
<glyph unicode=")" horiz-adv-x="921" d="M80 -145q0 63 53 106q203 160 289 324q90 174 90 422t-90 421q-86 164 -289 324q-53 43 -53 107q0 53 38 93t95 40q45 0 84 -31q258 -203 367 -416q114 -219 114 -538t-111.5 -535.5t-369.5 -419.5q-39 -31 -84 -31q-57 0 -95 40t-38 94z" />
<glyph unicode="*" horiz-adv-x="1302" d="M172 1294l21 31l385 -115q-66 150 -66 207t41 98t98 41t98.5 -40.5t41.5 -98.5q0 -57 -66 -207l389 115l16 -35l-292 -274q178 -25 211 -47q72 -39 71 -123q0 -37 -18 -68q-43 -70 -123 -69q-39 0 -72 20q-43 20 -145 160l-94 -393h-37l-90 389q-72 -86 -82 -97 q-45 -49 -66 -59q-33 -20 -69 -20q-80 0 -123 69q-18 31 -19 70q0 80 68 121q39 22 215 47z" />
<glyph unicode="+" horiz-adv-x="1232" d="M76 715q0 55 40 95t95 40h270v270q0 55 40 95t95 40t95.5 -39.5t40.5 -95.5v-270h270q55 0 95 -40t40 -95t-40 -95t-95 -40h-270v-271q0 -55 -40 -95t-96 -40q-55 0 -95 40t-40 95v271h-270q-55 0 -95 39.5t-40 95.5z" />
<glyph unicode="," horiz-adv-x="614" d="M86 63l113 197q39 68 116 68q37 0 68 -19q68 -39 68 -119q0 -35 -19 -65l-266 -463l-72 35q68 133 68 213q0 82 -76 153z" />
<glyph unicode="-" horiz-adv-x="905" d="M76 715q0 55 40 95t95 40h483q55 0 95 -40t40 -95t-39.5 -95t-95.5 -40h-483q-55 0 -95 39.5t-40 95.5z" />
<glyph unicode="." horiz-adv-x="614" d="M106 145q0 72 53.5 125.5t125.5 53.5t125 -53.5t53 -125.5q0 -74 -53.5 -126t-124.5 -52q-72 0 -125.5 52t-53.5 126z" />
<glyph unicode="/" horiz-adv-x="942" d="M-6 94q0 35 18 70l664 1253q41 78 129 78q57 0 100 -41t43 -104q0 -33 -18 -68l-664 -1253q-41 -78 -129 -78q-59 0 -101 42t-42 101z" />
<glyph unicode="0" horiz-adv-x="1445" d="M106 729q0 328 162 539q170 223 455 223t457 -223q160 -211 159 -539q0 -328 -159 -539q-172 -223 -457 -223t-455 223q-162 211 -162 539zM453 729q0 -197 71 -321q74 -133 199 -134q125 0 201 134q70 125 69 321q0 197 -69 322q-76 133 -201 133t-199 -133 q-72 -125 -71 -322z" />
<glyph unicode="1" horiz-adv-x="856" d="M10 1323q0 55 40 95t95 40h486v-1286q0 -45 33.5 -79t78.5 -34h56v-59h-717v59h55q47 0 80 34t33 79v1016h-105q-55 0 -95 40t-40 95z" />
<glyph unicode="2" horiz-adv-x="1228" d="M63 147q0 55 41 97l469 467q203 203 203 325q0 55 -49 93t-115 38q-84 0 -129 -55q-31 -49 -63 -100q-41 -55 -121 -56q-66 0 -113 47.5t-47 112.5q0 125 131 244q145 131 342 131q201 0 344.5 -135t143.5 -320q0 -221 -246 -465l-485 -483h391q106 0 179 74t73 178v72 h80v-408h-861q-78 0 -125 45q-43 39 -43 98z" />
<glyph unicode="3" horiz-adv-x="1187" d="M68 362q0 68 48 116t115 48q68 0 116 -48t48 -116q0 -84 -67 -131q63 -51 145 -51q96 0 166 68.5t70 165.5q0 78 -46.5 141t-111 63t-109.5 45.5t-45 108.5t45 108.5t109 45.5q88 0 138 36t50 93q0 55 -48 92t-113 37q-94 0 -153.5 -94.5t-141.5 -94.5q-63 0 -108.5 45 t-45.5 109q0 88 104 199q137 143 345 143q197 0 333 -129t136 -307q0 -184 -134 -303q176 -139 177 -338q0 -186 -151 -316.5t-364 -130.5q-240 0 -385 137q-123 117 -122 258z" />
<glyph unicode="4" horiz-adv-x="1292" d="M41 340v184l522 819q94 148 211 148q86 0 148.5 -61.5t62.5 -147.5v-672h107q55 0 95 -40t40 -95t-40 -95t-95 -40h-107v-182q0 -66 -47 -112t-113 -46h-407v59h35q47 0 79.5 34t32.5 79v168h-524zM209 610h356v555z" />
<glyph unicode="5" horiz-adv-x="1126" d="M18 250q0 66 47.5 113t112.5 47q61 0 128 -62.5t149 -62.5q94 0 161.5 74.5t67.5 179.5q0 104 -67.5 179t-161.5 75q-147 0 -215 -162h-131l86 827h833q0 -127 -92 -219t-219 -92h-248l-16 -143h34q236 0 403 -152t167 -367t-167 -366.5t-403 -151.5q-170 0 -319.5 88 t-149.5 195z" />
<glyph unicode="6" d="M57 461q0 203 185 387l643 643q39 39 96 39t96 -39t39 -96t-39 -97l-346 -346q188 -37 312 -174t124 -317q0 -209 -162.5 -356.5t-392.5 -147.5q-229 0 -392 147.5t-163 356.5zM430 444q0 -166 45 -270q49 -111 137 -111t138 111q45 104 45 270t-47.5 273.5t-135.5 107.5 t-135 -107.5t-47 -273.5z" />
<glyph unicode="7" horiz-adv-x="1003" d="M2 1051v407h875q57 0 100 -41t43 -104q0 -33 -19 -68l-645 -1216q-41 -78 -129 -78q-59 0 -101 42t-42 101q0 35 18 70l641 1210h-409q-106 0 -179 -73.5t-73 -178.5v-71h-80z" />
<glyph unicode="8" horiz-adv-x="1179" d="M82 344q-1 209 237 324q-197 135 -196 372q0 186 132 318.5t318 132.5t319.5 -132t133.5 -319q0 -162 -106 -288q190 -133 190 -344q0 -182 -150.5 -311.5t-363.5 -129.5q-246 0 -385 109q-129 102 -129 268zM295 362q0 -139 94 -221q84 -73 199 -73q102 0 175 59t73 141 q0 117 -158 224q-74 47 -268 135q-115 -102 -115 -265zM430 1040q0 -57 42 -99t101 -42t101.5 42t42.5 99q0 59 -42.5 101.5t-101.5 42.5q-57 0 -100 -42t-43 -102z" />
<glyph unicode="9" d="M96 1036q0 195 163 330t394 135t394 -135t163 -330q0 -240 -145 -385l-684 -684q-39 -39 -96 -39t-96 39t-39 96t38 97l412 411q-213 16 -358.5 149.5t-145.5 315.5zM471 1036q0 -90 53.5 -154.5t128.5 -64.5q76 0 129.5 64.5t53.5 154.5t-53.5 154.5t-129.5 64.5 t-129 -64.5t-53 -154.5z" />
<glyph unicode=":" horiz-adv-x="614" d="M106 145q0 72 53.5 125.5t125.5 53.5t125 -53.5t53 -125.5q0 -74 -53.5 -126t-124.5 -52q-72 0 -125.5 52t-53.5 126zM106 784q0 72 53.5 125.5t125.5 53.5t125 -53.5t53 -125.5q0 -74 -53.5 -126t-124.5 -52q-72 0 -125.5 52t-53.5 126z" />
<glyph unicode=";" horiz-adv-x="614" d="M86 63l113 197q39 68 116 68q37 0 68 -19q68 -39 68 -119q0 -35 -19 -65l-266 -463l-72 35q68 133 68 213q0 82 -76 153zM106 784q0 72 53.5 125.5t125.5 53.5t125 -53.5t53 -125.5q0 -74 -53.5 -126t-124.5 -52q-72 0 -125.5 52t-53.5 126z" />
<glyph unicode="&#x3c;" horiz-adv-x="839" d="M176 715l223 385q45 78 131 78q37 0 70 -19q72 -41 72 -129q0 -41 -21 -76l-141 -239l141 -242q20 -35 21 -76q0 -86 -72 -127q-33 -18 -70 -18q-88 0 -131 76z" />
<glyph unicode="=" horiz-adv-x="905" d="M76 506q0 55 40 95t95 40h483q55 0 95 -40t40 -95t-39.5 -95t-95.5 -40h-483q-55 0 -95 40t-40 95zM76 924q0 55 40 95t95 40h483q55 0 95 -40t40 -95t-39.5 -95.5t-95.5 -40.5h-483q-55 0 -95 40t-40 96z" />
<glyph unicode="&#x3e;" horiz-adv-x="839" d="M162 397q0 41 20 76l142 242l-142 239q-20 35 -20 76q0 88 71 129q33 18 70 19q86 0 131 -78l223 -385l-223 -387q-43 -76 -131 -76q-37 0 -70 18q-72 41 -71 127z" />
<glyph unicode="?" horiz-adv-x="1105" d="M61 1225q0 135 152 205q133 61 356 61q193 0 328 -130t135 -314q0 -170 -117.5 -296.5t-289.5 -146.5q-6 -51 -45 -86t-91 -35q-55 0 -95 40t-40 95v123q0 55 40 95.5t95 40.5q231 0 232 204q0 129 -80 222.5t-188 93.5q-78 0 -78 -56q0 -14 7 -54t7 -62q0 -68 -48 -116 t-116 -48t-116 48t-48 116zM311 145q0 72 53.5 125.5t124.5 53.5q72 0 125.5 -53.5t53.5 -125.5q0 -74 -53.5 -126t-125.5 -52t-125 52.5t-53 125.5z" />
<glyph unicode="@" horiz-adv-x="1658" d="M45 662q0 334 249 581.5t583 247.5q297 0 496.5 -200.5t199.5 -493.5q0 -35 -2 -68q-20 -244 -172 -428h-387q-63 0 -94 57q-90 -72 -205 -71q-143 0 -233.5 113.5t-76.5 275.5t124 275.5t253 113.5q111 0 193 -72q39 59 104 60q47 0 77 -33t26 -80l-41 -477h219 q53 129 53 258q0 233 -160.5 394t-398.5 161q-268 0 -467 -198.5t-199 -465.5q0 -236 161 -396.5t398 -160.5q45 0 46 -41q0 -47 -50 -47q-297 0 -496.5 201t-199.5 494zM623 676q-6 -74 34.5 -124t106.5 -50t117 50t57 124t-35.5 124t-107.5 50t-116 -50t-56 -124z" />
<glyph unicode="A" horiz-adv-x="1503" d="M-39 0v59h35q47 0 97 33t69 80l522 1286q209 0 299 -219l432 -1063q12 -31 12 -55q0 -63 -45 -108.5t-108 -45.5q-102 0 -141 94l-95 232h-733l-49 -121q-10 -27 -10 -49q0 -63 69 -64h117v-59h-471zM430 600h483l-241 594z" />
<glyph unicode="B" horiz-adv-x="1236" d="M41 0v59h35q47 0 79.5 34t32.5 79v1114q0 47 -32.5 80t-79.5 33h-35v59h598q168 0 285.5 -101.5t117.5 -246.5q0 -190 -186 -293q133 -51 214 -156.5t81 -234.5q0 -176 -145.5 -301t-350.5 -125h-614zM397 295h260q61 0 105.5 44t44.5 105t-44.5 105.5t-105.5 44.5h-260 v-299zM397 889h166q57 0 97 40t40 97t-40 97t-97 40h-166v-274z" />
<glyph unicode="C" horiz-adv-x="1290" d="M86 731q0 317 214 539.5t517 222.5q174 0 334 -84q90 -47 90 -147q0 -70 -49 -118t-117 -48q-43 0 -84 22q-76 43 -174 43q-166 0 -282.5 -126t-116.5 -304t116.5 -304t282.5 -126q92 0 176 45q43 23 84 23q70 0 118 -48.5t48 -117.5q0 -102 -94 -152q-156 -82 -332 -82 q-303 0 -517 222.5t-214 539.5z" />
<glyph unicode="D" horiz-adv-x="1396" d="M41 0v59h35q47 0 79.5 34t32.5 79v1114q0 47 -32.5 80t-79.5 33h-35v59h614q270 0 463 -214t193 -515t-192.5 -515t-463.5 -214h-614zM397 307h226q135 0 232 124t97 298t-97 298t-232 124h-226v-844z" />
<glyph unicode="E" horiz-adv-x="983" d="M41 0v59h35q47 0 79.5 34t32.5 79v1114q0 47 -32.5 80t-79.5 33h-35v59h713q63 0 108 -45t45 -108t-45 -108.5t-108 -45.5h-357v-264h326q63 0 108.5 -45t45.5 -109q0 -63 -45.5 -108t-108.5 -45h-326v-273h369q63 0 108.5 -45t45.5 -108t-45.5 -108.5t-108.5 -45.5h-725 z" />
<glyph unicode="F" horiz-adv-x="919" d="M41 0v59h35q47 0 79.5 34t32.5 79v1114q0 47 -32.5 80t-79.5 33h-35v59h713q63 0 108 -45t45 -108t-45 -108.5t-108 -45.5h-357v-264h326q63 0 108.5 -45t45.5 -109q0 -63 -45.5 -108t-108.5 -45h-326v-580h-356z" />
<glyph unicode="G" horiz-adv-x="1540" d="M86 729q0 315 210 538.5t507 223.5q125 0 261 -41t148 -41q35 0 35 47v35h80v-438h-80v34q0 125 -105.5 213.5t-236.5 88.5q-188 0 -315 -138q-145 -160 -146 -452q0 -244 102.5 -384.5t256.5 -140.5q117 0 197.5 76t93.5 207h-176q-63 0 -108.5 45t-45.5 109 q0 63 45 108t109 45h399q162 0 162 -135q0 -338 -189.5 -550t-486.5 -212t-507 223.5t-210 538.5z" />
<glyph unicode="H" horiz-adv-x="1490" d="M41 0v59h35q47 0 79.5 34t32.5 79v1114q0 47 -32.5 80t-79.5 33h-35v59h676v-59h-35q-45 0 -79 -33t-34 -80v-385h447v424q0 70 48 118t118 48t118 -48t48 -118v-1192q0 -70 -48.5 -118t-117.5 -48q-70 0 -118 48t-48 118v461h-447v-422q0 -45 34 -79t79 -34h35v-59h-676 z" />
<glyph unicode="I" horiz-adv-x="632" d="M41 0v59h35q47 0 79.5 34t32.5 79v1114q0 47 -32.5 80t-79.5 33h-35v59h289q66 0 112.5 -46t46.5 -112v-1142q0 -66 -47 -112t-112 -46h-289z" />
<glyph unicode="J" horiz-adv-x="829" d="M-4 55v291h88q0 -129 53 -218t129 -89q98 0 140.5 72.5t42.5 234.5v940q0 47 -33 80t-80 33h-35v59h225q66 0 113 -46t47 -112v-956q0 -170 -111.5 -273.5t-306.5 -103.5q-156 0 -272 88z" />
<glyph unicode="K" horiz-adv-x="1275" d="M41 0v59h35q47 0 79.5 34t32.5 79v1114q0 47 -32.5 80t-79.5 33h-35v59h197q66 0 112.5 -46t46.5 -112v-393l529 533q51 51 118 51q70 0 118 -48t48 -118q0 -68 -51 -119l-446 -448l508 -508q51 -51 51 -119q0 -70 -48 -118t-118 -48q-68 0 -119 51l-590 592v-450 q0 -66 -47 -112t-112 -46h-197z" />
<glyph unicode="L" horiz-adv-x="921" d="M41 0v59h35q47 0 79.5 34t32.5 79v1114q0 47 -32.5 80t-79.5 33h-35v59h197q66 0 112.5 -46t46.5 -112v-993h369q63 0 108.5 -45t45.5 -108t-45.5 -108.5t-108.5 -45.5h-725z" />
<glyph unicode="M" horiz-adv-x="1753" d="M41 0v59h35q47 0 79.5 34t32.5 79v1114q0 47 -32.5 80t-79.5 33h-35v59h506l315 -833l281 735q49 129 160 129q123 0 157 -152l271 -1169q4 -18 4 -37q0 -72 -49.5 -119t-116.5 -47q-55 0 -101.5 34t-60.5 95l-147 637l-242 -637q-49 -129 -156 -129q-106 0 -155 129 l-428 1133v-1055q0 -45 33.5 -79t78.5 -34h35v-59h-385z" />
<glyph unicode="N" horiz-adv-x="1490" d="M41 0v59h35q47 0 79.5 34t32.5 79v1114q0 47 -32.5 80t-79.5 33h-35v59h297l678 -833v700q0 68 49 117t117 49t118 -49q48 -47 48 -112v-5v-1167q0 -88 -41 -139.5t-103 -51.5q-82 0 -151 86l-774 953v-834q0 -45 33.5 -79t78.5 -34h35v-59h-385z" />
<glyph unicode="O" horiz-adv-x="1605" d="M86 729q0 328 186 539q199 223 531 223t530 -223q186 -211 187 -539q0 -328 -187 -539q-199 -223 -530 -223q-332 0 -531 223q-186 211 -186 539zM444 729q0 -197 95 -321q98 -133 264 -134q166 0 266 134q92 125 92 321q0 197 -92 322q-100 133 -266 133t-264 -133 q-94 -125 -95 -322z" />
<glyph unicode="P" horiz-adv-x="1204" d="M41 0v59h35q47 0 79.5 34t32.5 79v1114q0 47 -32.5 80t-79.5 33h-35v59h602q205 0 350.5 -145.5t145.5 -349.5q0 -205 -145.5 -349.5t-350.5 -144.5h-246v-469h-356zM397 764h197q84 0 142.5 58.5t58.5 140.5q0 84 -58.5 142t-142.5 58h-197v-399z" />
<glyph unicode="Q" horiz-adv-x="1605" d="M86 729q0 328 186 539q199 223 531 223t530 -223q186 -211 187 -539q-1 -272 -134 -467l136 -121q51 -47 51 -114q0 -63 -45 -108.5t-109 -45.5q-59 0 -102 39l-158 141q-156 -86 -356 -86q-332 0 -531 223q-186 211 -186 539zM444 729q0 -197 95 -321q98 -133 264 -134 q49 1 92 13l-53 47q-53 47 -54 117q0 63 45.5 108t108.5 45q57 0 105 -41l71 -63q43 102 43 229q0 197 -92 322q-100 133 -266 133t-264 -133q-94 -125 -95 -322z" />
<glyph unicode="R" horiz-adv-x="1193" d="M41 0v59h35q47 0 79.5 34t32.5 79v1114q0 47 -32.5 80t-79.5 33h-35v59h635q182 0 312 -130t130 -312q0 -143 -84 -258t-217 -160l279 -362q37 -47 37 -105q0 -70 -47.5 -117t-116.5 -47q-84 0 -135 68l-437 567v-444q0 -66 -47 -112t-112 -46h-197zM397 829h228 q66 0 113.5 47t47.5 113t-48 114t-113 48h-228v-322z" />
<glyph unicode="S" horiz-adv-x="1193" d="M61 207q0 72 42 124t114 52q31 0 146.5 -42t211.5 -42q88 0 138 41q39 33 39 76q0 74 -88 116q-33 16 -228 78q-350 111 -350 414q0 207 160 342q152 125 364 125q195 0 308 -61q106 -59 106 -158q0 -68 -41 -112t-106 -44q-49 0 -128 27.5t-155 27.5q-68 0 -110 -32.5 t-42 -85.5q0 -55 70 -88q16 -8 242 -82q139 -47 233 -140q121 -121 121 -288q0 -240 -162 -369q-150 -119 -395 -119q-172 0 -318 60q-172 67 -172 180z" />
<glyph unicode="T" horiz-adv-x="933" d="M-16 1071v387h852q63 0 108 -45t45 -108t-45 -108.5t-108 -45.5h-205v-993q0 -66 -47 -112t-113 -46h-303v59h35q47 0 79.5 34t32.5 79v1223q-104 0 -178 -74t-74 -178v-72h-79z" />
<glyph unicode="U" horiz-adv-x="1472" d="M41 1399v59h676v-59h-35q-45 0 -79 -33t-34 -80v-856q0 -96 62.5 -164.5t150.5 -68.5t151.5 68.5t63.5 164.5v895q0 70 48.5 118t117.5 48q70 0 118 -48t48 -118v-846q0 -211 -168 -361.5t-403 -150.5q-236 0 -403 150.5t-167 361.5v807q0 47 -32.5 80t-79.5 33h-35z" />
<glyph unicode="V" horiz-adv-x="1146" d="M-135 1399v59h745v-59h-116q-70 0 -70 -64q0 -23 10 -49l182 -452l226 552q43 104 151 105q70 0 119 -47t49 -119q0 -35 -12 -65l-537 -1317l-546 1343q-45 113 -166 113h-35z" />
<glyph unicode="W" horiz-adv-x="1740" d="M-182 1399v59h745v-59h-117q-67 0 -67 -62q0 -22 8 -51l125 -407l162 477q45 135 155 135q109 0 156 -135l236 -684l219 704q14 47 56 81t99 34q68 0 116 -46t48 -116q0 -25 -8 -51l-369 -1182q-41 -129 -157 -129q-111 0 -154 125l-242 701l-268 -793h-147l-396 1286 q-35 113 -165 113h-35z" />
<glyph unicode="X" horiz-adv-x="1064" d="M-147 0v59h34q80 0 160 113l356 504l-366 608q-68 113 -133 113h-35v59h674v-59h-35q-102 0 -102 -70q0 -23 12 -43l100 -162l221 299q51 70 135 70q70 0 118 -49t48 -117q0 -53 -34 -100l-304 -408l363 -596q27 -43 27 -88q0 -70 -49.5 -118t-116.5 -48q-94 0 -144 82 l-293 483l-266 -360q-20 -27 -20 -49q0 -63 112 -64h35v-59h-497z" />
<glyph unicode="Y" horiz-adv-x="1085" d="M-109 1399v59h746v-59h-117q-69 0 -69 -62q0 -25 10 -51l104 -260l289 399q47 66 127 66q63 0 108.5 -45t45.5 -107q0 -51 -31 -94l-397 -549v-538q0 -66 -47.5 -112t-112.5 -46h-318v59h35q47 0 80 34t33 79v414l-285 700q-45 113 -166 113h-35z" />
<glyph unicode="Z" horiz-adv-x="1126" d="M14 121q0 55 43 119l764 1134h-391q-106 0 -179 -73.5t-73 -178.5v-71h-80v407h860q170 0 170 -123q0 -53 -43 -116l-612 -912h545q63 0 108 -45t45 -108t-45 -108.5t-108 -45.5h-834q-170 0 -170 121z" />
<glyph unicode="[" horiz-adv-x="921" d="M205 -61v1564q0 55 40 95t95 40h360q55 0 95.5 -39.5t40.5 -95.5q0 -55 -40 -95t-96 -40h-217v-1294h217q55 0 95.5 -40t40.5 -95t-40 -95.5t-96 -40.5h-360q-55 0 -95 40t-40 96z" />
<glyph unicode="\" horiz-adv-x="942" d="M-6 1350q0 63 43 104t100 41q88 0 129 -78l664 -1253q18 -35 18 -70q0 -59 -42 -101t-101 -42q-88 0 -129 78l-664 1253q-18 35 -18 68z" />
<glyph unicode="]" horiz-adv-x="921" d="M106 -61q0 55 40 95t96 40h217v1294h-217q-55 0 -95.5 40t-40.5 95t40 95t96 40h360q55 0 95 -39.5t40 -95.5v-1564q0 -55 -40 -95.5t-95 -40.5h-360q-55 0 -95.5 40t-40.5 96z" />
<glyph unicode="^" horiz-adv-x="1062" d="M31 950q0 41 28 80l361 477q51 68 106 68t107 -68l356 -477q29 -39 29 -82q0 -53 -42 -93t-95 -40q-63 0 -105 55l-250 336l-254 -336q-41 -55 -102 -55q-55 0 -97 40t-42 95z" />
<glyph unicode="_" horiz-adv-x="573" d="M-78 -229q0 33 22.5 55t55.5 22h573q33 0 55.5 -22.5t22.5 -54.5q0 -33 -22.5 -55.5t-55.5 -22.5h-573q-33 0 -55.5 22.5t-22.5 55.5z" />
<glyph unicode="`" horiz-adv-x="921" d="M-4 1524q0 33 16 59q35 59 105 59q33 0 61 -16l375 -217q63 -37 63 -109q0 -49 -34.5 -82.5t-85.5 -33.5q-35 0 -64 16l-375 217q-61 35 -61 107z" />
<glyph unicode="a" d="M66 524q0 231 143 394t348 163q156 0 285 -102q45 84 141 84q66 0 113 -47t47 -113v-758q0 -66 -47 -111.5t-113 -45.5q-94 0 -141 82q-125 -102 -285 -103q-205 0 -348 163t-143 394zM379 524q0 -104 65.5 -177t159.5 -73t159.5 73t65.5 177t-65.5 177t-159.5 73 t-159.5 -72.5t-65.5 -177.5z" />
<glyph unicode="b" horiz-adv-x="1200" d="M20 0v59h35q47 0 80 34t33 79v1180q0 47 -33 79.5t-80 32.5h-35v60h500v-459q61 16 123 16q205 0 348.5 -162.5t143.5 -394.5q0 -231 -143.5 -394t-348.5 -163q-156 0 -285 103q-47 -70 -133 -70h-205zM371 524q0 -104 65.5 -177t159.5 -73t159.5 73t65.5 177t-65.5 177 t-159.5 73t-159.5 -72.5t-65.5 -177.5z" />
<glyph unicode="c" horiz-adv-x="1064" d="M66 524q0 229 158.5 393t381.5 164q168 0 293 -69q135 -76 135 -197q0 -68 -48 -116t-116 -48t-115.5 48.5t-47.5 115.5q0 23 7 63t7 54q0 55 -78 55q-109 0 -188.5 -121t-79.5 -301q0 -141 80 -223q66 -68 151 -68q66 0 138.5 29t99.5 29q59 0 100 -41t41 -101 q0 -96 -131 -163q-117 -59 -248 -60q-223 0 -381.5 164t-158.5 393z" />
<glyph unicode="d" horiz-adv-x="1290" d="M66 524q0 231 143 394t348 163h4q127 0 234 -69v340q0 47 -33 79.5t-80 32.5h-35v60h500v-1352q0 -45 33.5 -79t79.5 -34h34v-59h-247q-55 0 -97.5 33t-56.5 84q-143 -150 -336 -150q-205 0 -348 163t-143 394zM379 524q0 -104 65.5 -177t159.5 -73t159.5 73t65.5 177 t-65.5 177t-159.5 73t-159.5 -72.5t-65.5 -177.5z" />
<glyph unicode="e" horiz-adv-x="1200" d="M66 524q0 231 156.5 394t377.5 163t378 -162.5t157 -394.5v-16h-656q0 -246 180 -246q109 0 195 78q56 49 109 49q55 0 95 -40t40 -95q0 -59 -45 -102q-193 -184 -453 -185q-221 0 -377.5 163t-156.5 394zM481 580h293q0 407 -146 407h-1q-145 0 -146 -407z" />
<glyph unicode="f" horiz-adv-x="819" d="M4 901q0 61 43 104.5t105 43.5h57v71q0 168 131 286t317 118q139 0 252 -71t113 -167q0 -63 -45 -109.5t-111 -46.5q-63 0 -109 46.5t-46 109.5q0 33 23.5 86t23.5 68q0 30 -58 30h-4q-168 0 -168 -421h111q61 0 104 -43t43 -105q0 -61 -43 -104t-104 -43h-111v-607 q0 -66 -47 -112.5t-112 -46.5q-66 0 -113 47t-47 112v607h-57q-61 0 -104.5 43t-43.5 104z" />
<glyph unicode="g" d="M66 524q0 231 143 394t348 163q156 0 285 -102q45 84 141 84q66 0 113 -47t47 -113v-799q0 -281 -189 -438q-143 -121 -350 -121q-199 0 -393 111q-68 39 -68 117q0 57 41 98t99 41q33 0 65 -18q137 -76 256 -76q104 0 174 59q86 74 90 213q-133 -123 -311 -123 q-205 0 -348 163t-143 394zM379 524q0 -104 65.5 -177t159.5 -73t159.5 73t65.5 177t-65.5 177t-159.5 73t-159.5 -72.5t-65.5 -177.5z" />
<glyph unicode="h" horiz-adv-x="1179" d="M20 0v59h35q47 0 80 34t33 79v1180q0 47 -33 79.5t-80 32.5h-35v60h512v-60h-34q-45 0 -79 -32.5t-34 -79.5v-375q119 104 281 104t276.5 -101t114.5 -243v-590q0 -66 -47 -112.5t-113 -46.5t-113 47t-47 112v488q0 72 -52 124t-124 52t-124 -52t-52 -124v-477 q0 -66 -47 -112t-113 -46h-205z" />
<glyph unicode="i" horiz-adv-x="729" d="M41 0v59h35q47 0 79.5 34t32.5 79v672q0 47 -32.5 79.5t-79.5 32.5h-35v60l514 33l-14 -205v-672q0 -45 33.5 -79t78.5 -34h35v-59h-647zM162 1386q0 78 56 134.5t134 56.5t134.5 -56.5t56.5 -134.5t-56.5 -134t-134.5 -56t-134 56.5t-56 133.5z" />
<glyph unicode="j" horiz-adv-x="565" d="M-287 -213q0 63 45 108.5t109 45.5q63 0 108 -45.5t45 -108.5q0 -53 -33.5 -95t-84.5 -54q37 -31 96 -31q55 0 94 47q31 41 31 84v1184q0 66 47 112.5t113 46.5t112.5 -47t46.5 -112v-965q0 -170 -120.5 -291t-290.5 -121q-137 0 -227.5 70t-90.5 172zM90 1386 q0 78 56.5 134.5t134.5 56.5t134 -56.5t56 -134.5t-56.5 -134t-133.5 -56q-78 0 -134.5 56.5t-56.5 133.5z" />
<glyph unicode="k" horiz-adv-x="1118" d="M20 0v59h35q47 0 80 34t33 79v1180q0 47 -33 79.5t-80 32.5h-35v60h488v-736l334 261q42 32 87 32h3q59 0 101 -42t42 -101q0 -70 -57 -115l-303 -237l352 -353q43 -43 43 -100q0 -59 -42 -101t-101 -42q-57 0 -101 43l-358 360v-221q0 -45 33.5 -79t79.5 -34h34v-59 h-635z" />
<glyph unicode="l" horiz-adv-x="696" d="M41 0v59h35q47 0 79.5 34t32.5 79v1225q0 66 47.5 112.5t112.5 46.5q66 0 113 -47t47 -112v-1225q0 -45 33.5 -79t79.5 -34h34v-59h-614z" />
<glyph unicode="m" horiz-adv-x="1785" d="M20 0v59h35q47 0 80 34t33 79v672q0 47 -33 79.5t-80 32.5h-35v60l515 33l-9 -111q117 111 287 111q113 0 203 -52q111 84 256 84q162 0 276.5 -101t114.5 -243v-590q0 -66 -47 -112.5t-113 -46.5t-113 47t-47 112v504q0 66 -47 113t-112 47q-66 0 -113 -47t-47 -113 v-491q0 -66 -47 -113t-113 -47h-76v725q0 66 -39.5 113t-95.5 47q-53 0 -93 -47t-40 -113v-553q0 -45 34 -79t79 -34h35v-59h-648z" />
<glyph unicode="n" horiz-adv-x="1179" d="M20 0v59h35q47 0 80 34t33 79v672q0 47 -33 79.5t-80 32.5h-35v60h205q84 0 131 -68q121 133 310 133q162 0 276.5 -101t114.5 -243v-590q0 -66 -47 -112.5t-113 -46.5t-113 47t-47 112v531q0 53 -31.5 92t-76.5 39t-77 -39t-32 -92v-506q0 -45 34 -79t79 -34h35v-59 h-648z" />
<glyph unicode="o" horiz-adv-x="1212" d="M66 524q0 236 149 396.5t391 160.5t391.5 -160.5t149.5 -396.5t-148 -393q-152 -164 -393 -164q-242 0 -393 164q-147 158 -147 393zM391 524q0 -106 57.5 -178t157.5 -72t157.5 72t57.5 178t-57.5 178t-157.5 72t-157.5 -71.5t-57.5 -178.5z" />
<glyph unicode="p" horiz-adv-x="1202" d="M20 -350h35q47 0 80 32.5t33 79.5v1082q0 47 -33 79.5t-80 32.5h-35v60h392q109 65 229 65h4q205 0 348.5 -162.5t143.5 -394.5q0 -231 -143.5 -394t-348.5 -163q-141 0 -260 84v-303q0 -66 -47 -112t-113 -46h-205v60zM373 524q0 -104 65.5 -177t159.5 -73t159.5 73 t65.5 177t-65.5 177t-159.5 73t-159.5 -72.5t-65.5 -177.5z" />
<glyph unicode="q" horiz-adv-x="1220" d="M66 524q0 231 117.5 394t285.5 163q111 0 204 -75.5t146 -204.5v168q0 47 -32.5 79.5t-79.5 32.5h-35v60h266q66 0 113 -46t47 -112v-1221q0 -47 33.5 -79.5t78.5 -32.5h35v-60h-641v60h35q47 0 80 32.5t33 79.5v363q-119 -158 -283 -158q-168 0 -285.5 163t-117.5 394z M436 524q0 -397 180 -397q74 0 127.5 115.5t53.5 281.5t-53.5 283t-127.5 117q-180 0 -180 -400z" />
<glyph unicode="r" horiz-adv-x="819" d="M123 0v889q0 66 47 113t113 47q57 0 100 -36t55 -89q112 157 220 157h1q70 0 119 -49t49 -119t-49 -119t-119.5 -49t-130.5 -40q-86 -60 -86 -189v-344q0 -45 34 -79t79 -34h221v-59h-653z" />
<glyph unicode="s" horiz-adv-x="892" d="M37 182q0 66 38 109t91 43q61 0 139 -44t156 -44q84 0 84 55q0 35 -56 59q-90 37 -180 72q-246 100 -246 299q0 147 110 249.5t290 102.5q121 0 227 -51q131 -63 131 -172q0 -57 -38 -95t-93 -38q-43 0 -112.5 38t-133.5 38q-77 0 -77 -60q0 -37 125 -86 q166 -63 231 -110q125 -93 125 -234q0 -164 -119 -260q-111 -88 -278 -88q-158 0 -281 58q-133 63 -133 159z" />
<glyph unicode="t" horiz-adv-x="790" d="M4 901q0 61 43 104.5t105 43.5q158 0 266 125q102 121 102 284h62v-409h57q61 0 104 -43t43 -105q0 -61 -43 -104t-104 -43h-111v-607q0 -66 -47 -112.5t-112 -46.5q-66 0 -113 47t-47 112v607h-57q-61 0 -104.5 43t-43.5 104z" />
<glyph unicode="u" horiz-adv-x="1179" d="M20 956v60l424 33l-14 -205v-443q0 -63 45 -108t109 -45q63 0 108 45t45 108v521q0 66 47 112.5t113 46.5t113 -47t47 -112v-555q0 -166 -130 -283t-315 -117q-184 0 -314 117t-130 283v477q0 47 -33 79.5t-80 32.5h-35z" />
<glyph unicode="v" horiz-adv-x="991" d="M-70 989v60h627v-60h-35q-100 0 -100 -74q0 -18 8 -38l105 -287l151 399q35 92 131 92q57 0 99 -43t42 -98q0 -22 -10 -49l-301 -797q-43 -114 -129 -114h-2q-88 0 -131 114l-287 783q-41 112 -131 112h-2h-35z" />
<glyph unicode="w" horiz-adv-x="1531" d="M-90 989v60h627v-60h-35q-100 0 -101 -74q0 -18 9 -38l104 -287l143 377q43 114 129 114h2q88 0 132 -114l163 -430l164 430q35 90 129 90q55 0 98.5 -41t43.5 -101q0 -25 -9 -47l-295 -774q-43 -114 -129 -114h-2q-88 0 -131 114l-164 430l-194 -524h-193l-323 877 q-41 112 -131 112h-2h-35z" />
<glyph unicode="x" horiz-adv-x="1232" d="M-63 0v59h34q61 0 105 29q29 18 90 84l280 299l-274 406q-75 112 -172 112h-2h-35v60h694v-60h-34q-63 0 -64 -69q0 -25 12 -43l107 -158l289 313q45 49 110 49q61 0 102.5 -42t41.5 -101q0 -57 -41 -102l-336 -363l205 -301q76 -113 174 -113h34v-59h-694v59h35 q63 0 64 70q0 25 -13 43l-137 203l-190 -203q-31 -33 -31 -63q0 -49 61 -50h35v-59h-450z" />
<glyph unicode="y" horiz-adv-x="1085" d="M-86 989v60h655v-60h-34q-102 0 -103 -74q0 -18 10 -38l176 -385l216 497q39 92 131 92q57 0 98 -41t41 -98q-1 -27 -19 -70l-526 -1218q-37 -84 -127 -84q-55 0 -97 40t-42 99q-2 20 12 55l137 318l-360 795q-51 112 -132 112h-1h-35z" />
<glyph unicode="z" horiz-adv-x="983" d="M37 115q0 55 49 116l473 600h-328q-45 0 -78.5 -32.5t-33.5 -79.5v-92h-60v262q0 66 46.5 113t111.5 47h582q159 0 159 -116q0 -57 -47 -116l-417 -530h352q59 0 101 -42t42 -102q0 -57 -42 -100t-101 -43h-647q-162 0 -162 115z" />
<glyph unicode="{" horiz-adv-x="921" d="M41 686l287 287q-6 178 -6 151q0 332 323 537q35 23 74 22q57 0 95 -39.5t38 -93.5q0 -74 -64 -114q-201 -127 -200 -312q0 -12 12 -256l-182 -182l182 -180l-12 -258q-1 -182 200 -311q63 -41 64 -113q0 -53 -38 -93t-95 -40q-41 0 -74 20q-324 203 -323 537 q0 -27 6 151z" />
<glyph unicode="|" horiz-adv-x="681" d="M244 45v1434q0 33 22.5 55t55.5 22t55 -22.5t22 -54.5v-1434q0 -33 -22.5 -55.5t-54.5 -22.5q-33 0 -55.5 22.5t-22.5 55.5z" />
<glyph unicode="}" horiz-adv-x="921" d="M49 -176q0 72 64 113q201 129 200 311q0 12 -12 258l182 180l-182 182l12 256q0 184 -200 312q-63 41 -64 114q0 53 38 93t95 40q39 0 74 -22q324 -205 324 -537q0 27 -7 -151l287 -287l-287 -287q6 -178 7 -151q0 -334 -324 -537q-33 -20 -74 -20q-57 0 -95 40t-38 93z " />
<glyph unicode="~" horiz-adv-x="1089" d="M143 768v61q0 49 31 76t72 27t71.5 -26.5t30.5 -76.5q0 -82 45 -81q35 0 120 92t171 92q109 0 179.5 -65.5t70.5 -159.5v-62q0 -49 -31 -75.5t-72 -26.5t-71.5 26.5t-30.5 75.5q0 82 -45 82q-39 0 -82 -47q-74 -84 -80 -90q-57 -47 -129 -47q-102 0 -176 66.5t-74 158.5z " />
<glyph unicode="&#xa1;" horiz-adv-x="614" d="M106 936q0 74 53.5 126t125.5 52t125 -52t53 -126q0 -72 -53.5 -125t-124.5 -53q-72 0 -125.5 53t-53.5 125zM150 -274v737q0 55 39.5 95t95.5 40q55 0 95 -40t40 -95v-737q0 -55 -40 -95.5t-95 -40.5t-95 40t-40 96z" />
<glyph unicode="&#xa2;" horiz-adv-x="1173" d="M127 729q0 193 115.5 343.5t294.5 197.5v266q0 33 22.5 55.5t54.5 22.5q33 0 55.5 -22.5t22.5 -55.5v-250q162 -6 277 -74q127 -76 127 -192q0 -68 -48.5 -116t-115.5 -48q-68 0 -116 48t-48 116q0 23 7 62.5t7 54.5q0 55 -77 55h-13v-713q53 4 119 31t94 27 q59 0 100.5 -41t41.5 -101q0 -92 -121 -157q-106 -59 -234 -66v-250q0 -33 -22.5 -55.5t-55.5 -22.5t-55 22.5t-22 55.5v266q-178 47 -294 198t-116 343zM436 770q1 -160 101 -242v572q-100 -129 -101 -330z" />
<glyph unicode="&#xa3;" horiz-adv-x="1097" d="M25 799q0 61 43 104t104 43h57v174q0 168 131.5 286t317.5 118q139 0 251.5 -71t112.5 -167q0 -63 -45 -109.5t-110 -46.5q-63 0 -109.5 46.5t-46.5 109.5q0 33 23.5 86t23.5 68q0 31 -61 30q-168 0 -168 -421v-103h110q61 0 104.5 -43t43.5 -104t-43 -104.5t-105 -43.5 h-110v-344h360q63 0 108.5 -45t45.5 -108t-45 -108.5t-109 -45.5h-827v59h35q47 0 79.5 34t32.5 79v479h-57q-61 0 -104 43t-43 105z" />
<glyph unicode="&#xa4;" horiz-adv-x="983" d="M119 1186q0 154 108 262t262 108t262.5 -108.5t108.5 -261.5q0 -154 -108.5 -262.5t-262.5 -108.5t-262 108.5t-108 262.5zM340 1186q0 -61 44 -105.5t105 -44.5t105.5 44t44.5 106q0 61 -44 105t-106 44q-61 0 -105 -44t-44 -105z" />
<glyph unicode="&#xa5;" horiz-adv-x="1169" d="M-47 1399v59h745v-59h-116q-70 0 -70 -64q0 -23 10 -49l105 -260l288 399q47 66 127 66q63 0 108.5 -45t45.5 -107q0 -51 -31 -94l-381 -526h119q55 0 95 -40t40 -95t-40 -95t-95 -40h-135v-291q0 -66 -47 -112t-113 -46h-317v59h35q47 0 79.5 34t32.5 79v277h-166 q-55 0 -95 39.5t-40 95.5q0 55 40 95t95 40h113l-231 567q-45 113 -166 113h-35z" />
<glyph unicode="&#xa6;" horiz-adv-x="681" d="M244 45v537q0 33 22.5 55t55.5 22t55 -22.5t22 -54.5v-537q0 -33 -22.5 -55.5t-54.5 -22.5q-33 0 -55.5 22.5t-22.5 55.5zM244 942v537q0 33 22.5 55t55.5 22t55 -22.5t22 -54.5v-537q0 -33 -22.5 -55.5t-54.5 -22.5q-33 0 -55.5 22.5t-22.5 55.5z" />
<glyph unicode="&#xa7;" horiz-adv-x="892" d="M37 182q0 66 38 109t91 43q61 0 139 -44t156 -44q84 0 84 55q0 35 -56 59q-90 37 -180 72q-246 100 -246 299q0 123 76 215q-76 82 -76 193q0 147 110 249.5t290 102.5q121 0 227 -51q131 -63 131 -172q0 -57 -38 -95t-93 -38q-43 0 -112.5 37.5t-133.5 37.5 q-78 0 -77 -61q0 -35 125 -84q166 -63 231 -111q125 -92 125 -233q0 -129 -76 -217q76 -80 76 -191q0 -164 -119 -260q-111 -88 -278 -88q-158 0 -281 58q-133 63 -133 159zM367 741q0 -37 127 -84q51 12 51 52q0 29 -31 47q-20 12 -100 43q-47 -14 -47 -58z" />
<glyph unicode="&#xa8;" horiz-adv-x="741" d="M-4 1339q0 59 44 103.5t103 44.5t103.5 -44t44.5 -104q0 -59 -44 -103t-104 -44q-59 0 -103 44t-44 103zM418 1339q0 59 44 103.5t103 44.5t103.5 -44t44.5 -104q0 -59 -44 -103t-104 -44q-59 0 -103 44t-44 103z" />
<glyph unicode="&#xa9;" horiz-adv-x="1605" d="M41 729q0 315 223 538.5t539 223.5q315 0 538.5 -223.5t223.5 -538.5t-223.5 -538.5t-538.5 -223.5t-538.5 223.5t-223.5 538.5zM147 729q0 -270 192.5 -462.5t463.5 -192.5q270 0 462.5 192.5t192.5 462.5t-192.5 462.5t-462.5 192.5t-463 -192.5t-193 -462.5zM393 731 q0 199 134.5 338t324.5 139q113 0 193.5 -41t80.5 -118q0 -49 -34.5 -84t-83.5 -35q-16 0 -69.5 19.5t-86.5 19.5q-92 0 -155.5 -70t-63.5 -168t63.5 -167.5t155.5 -69.5q33 0 86 20.5t70 20.5q51 0 85.5 -35t34.5 -86q0 -70 -92 -117q-82 -43 -184 -43q-190 0 -324.5 139 t-134.5 338z" />
<glyph unicode="&#xaa;" horiz-adv-x="0" />
<glyph unicode="&#xab;" horiz-adv-x="1331" d="M176 715l223 385q45 78 131 78q37 0 70 -19q72 -41 72 -129q0 -41 -21 -76l-141 -239l141 -242q20 -35 21 -76q0 -86 -72 -127q-33 -18 -70 -18q-88 0 -131 76zM674 715l223 385q45 78 131 78q37 0 70 -19q72 -41 71 -129q0 -41 -20 -76l-141 -239l141 -242 q20 -35 20 -76q0 -86 -71 -127q-33 -18 -70 -18q-88 0 -131 76z" />
<glyph unicode="&#xac;" horiz-adv-x="0" />
<glyph unicode="&#xad;" horiz-adv-x="905" d="M76 715q0 55 40 95t95 40h483q55 0 95 -40t40 -95t-39.5 -95t-95.5 -40h-483q-55 0 -95 39.5t-40 95.5z" />
<glyph unicode="&#xae;" horiz-adv-x="1605" d="M41 729q0 315 223 538.5t539 223.5q315 0 538.5 -223.5t223.5 -538.5t-223.5 -538.5t-538.5 -223.5t-538.5 223.5t-223.5 538.5zM147 729q0 -270 192.5 -462.5t463.5 -192.5q270 0 462.5 192.5t192.5 462.5t-192.5 462.5t-462.5 192.5t-463 -192.5t-193 -462.5zM485 264 v58h41q47 0 47 47v708q0 47 -47 47h-41v56h402q119 0 201.5 -83t82.5 -202q0 -84 -46 -154.5t-121 -105.5l151 -197q27 -34 27 -73q0 -51 -34 -85t-85 -34q-61 0 -98 47l-226 295v-209q0 -47 -33.5 -81t-82.5 -34h-138zM739 803h117q31 0 53.5 22.5t22.5 53.5t-22.5 53 t-53.5 22h-117v-151z" />
<glyph unicode="&#xaf;" horiz-adv-x="614" d="M2 1419q0 55 40 95t95 40h352q55 0 95.5 -39.5t40.5 -95.5q0 -55 -40 -95t-96 -40h-352q-55 0 -95 40t-40 95z" />
<glyph unicode="&#xb0;" horiz-adv-x="983" d="M119 1186q0 154 108 262t262 108t262.5 -108.5t108.5 -261.5q0 -154 -108.5 -262.5t-262.5 -108.5t-262 108.5t-108 262.5zM340 1186q0 -61 44 -105.5t105 -44.5t105.5 44t44.5 106q0 61 -44 105t-106 44q-61 0 -105 -44t-44 -105z" />
<glyph unicode="&#xb1;" horiz-adv-x="0" />
<glyph unicode="&#xb2;" horiz-adv-x="1001" d="M143 674q0 41 29 69l283 281q117 117 116 184q0 27 -24.5 44.5t-57.5 17.5q-61 0 -96 -63.5t-92 -63.5q-45 0 -79 33.5t-34 78.5q0 80 84 156q92 86 217 86q127 0 218.5 -86t91.5 -203q0 -143 -152 -293l-262 -260h193q57 0 96 39t39 97v59h80v-279h-533q-55 0 -86 31 t-31 72z" />
<glyph unicode="&#xb3;" horiz-adv-x="970" d="M162 838q0 47 34.5 80.5t79.5 33.5q49 0 82 -33.5t33 -80.5t-31 -78q27 -14 62 -15q53 0 89 36t36 87q0 41 -22.5 74t-55.5 33q-45 0 -77 31.5t-32 76.5t32 77t77 32q96 0 96 61t-80 62q-57 0 -93 -57.5t-85 -57.5q-43 0 -75.5 33t-32.5 76q0 57 67 129q86 94 219 94 q125 0 211 -83t86 -196q0 -104 -71 -182q98 -84 98 -203t-95.5 -201.5t-230.5 -82.5q-152 0 -243 88q-78 76 -78 166z" />
<glyph unicode="&#xb4;" horiz-adv-x="536" d="M-6 1296q0 72 63 109l375 217q29 16 62 16q69 0 104 -59q16 -27 16 -59q0 -72 -61 -107l-375 -217q-29 -16 -63 -16q-51 0 -86 33.5t-35 82.5z" />
<glyph unicode="&#xb6;" horiz-adv-x="1286" d="M94 963q0 205 145.5 350t350.5 145h684v-59h-35q-45 0 -79 -33t-34 -80v-1114q0 -45 34 -79t79 -34h35v-59h-356v469h-127v-469h-377v59h55q47 0 80 34t33 79v297q-201 4 -344.5 147.5t-143.5 346.5zM438 963q0 -66 41.5 -119.5t102.5 -71.5v383q-61 -18 -102.5 -71.5 t-41.5 -120.5zM791 764h127v399h-127v-399z" />
<glyph unicode="&#xb7;" horiz-adv-x="0" />
<glyph unicode="&#xb8;" horiz-adv-x="516" d="M72 -399q0 41 26.5 71.5t75.5 30.5q154 0 154 64q0 39 -62 38q-117 0 -116 84q0 45 45 91l122 122q33 33 74 33t72 -30.5t31 -71.5t-33 -74l-12 -12q83 -70 83 -172q0 -119 -109.5 -198t-248.5 -79q-49 0 -75.5 31t-26.5 72z" />
<glyph unicode="&#xb9;" horiz-adv-x="835" d="M133 1360q0 39 30 67.5t68 28.5h308v-788q0 -51 51 -52h49v-67h-463v67h51q51 0 52 52v594h-48q-39 0 -68.5 29.5t-29.5 68.5z" />
<glyph unicode="&#xba;" horiz-adv-x="0" />
<glyph unicode="&#xbb;" horiz-adv-x="1331" d="M162 397q0 41 20 76l142 242l-142 239q-20 35 -20 76q0 88 71 129q33 18 70 19q86 0 131 -78l223 -385l-223 -387q-43 -76 -131 -76q-37 0 -70 18q-72 41 -71 127zM659 397q0 41 21 76l141 242l-141 239q-20 35 -21 76q0 88 72 129q33 18 70 19q86 0 131 -78l223 -385 l-223 -387q-43 -76 -131 -76q-37 0 -70 18q-72 41 -72 127z" />
<glyph unicode="&#xbc;" horiz-adv-x="1996" d="M133 1360q0 39 30 67.5t68 28.5h308v-788q0 -51 51 -52h49v-67h-463v67h51q51 0 52 52v594h-48q-39 0 -68.5 29.5t-29.5 68.5zM477 94q0 35 19 70l663 1253q41 78 129 78q57 0 100.5 -41t43.5 -104q-1 -33 -19 -68l-663 -1253q-41 -78 -129 -78q-59 0 -101.5 42 t-42.5 101zM1094 203v131l315 495q63 98 141 99q59 0 101.5 -42t42.5 -102v-385h47q41 0 69.5 -28.5t28.5 -69.5q0 -39 -28.5 -68.5t-69.5 -29.5h-47v-92q0 -45 -33 -78t-80 -33h-260v68h37q51 0 51 51v84h-315zM1243 399h166v260z" />
<glyph unicode="&#xbd;" horiz-adv-x="2002" d="M133 1360q0 39 30 67.5t68 28.5h308v-788q0 -51 51 -52h49v-67h-463v67h51q51 0 52 52v594h-48q-39 0 -68.5 29.5t-29.5 68.5zM477 94q0 35 19 70l663 1253q41 78 129 78q57 0 100.5 -41t43.5 -104q-1 -33 -19 -68l-663 -1253q-41 -78 -129 -78q-59 0 -101.5 42 t-42.5 101zM1184 100q0 41 28 70l283 281q117 117 117 184q0 27 -24.5 44t-57.5 17q-61 0 -96 -63.5t-93 -63.5q-45 0 -78.5 34t-33.5 79q0 80 84 156q92 86 217 86q127 0 218 -86t91 -203q0 -143 -151 -293l-263 -260h193q57 0 96 39t39 96v59h80v-278h-533 q-55 0 -85.5 30.5t-30.5 71.5z" />
<glyph unicode="&#xbe;" horiz-adv-x="2052" d="M162 838q0 47 34.5 80.5t79.5 33.5q49 0 82 -33.5t33 -80.5t-31 -78q27 -14 62 -15q53 0 89 36t36 87q0 41 -22.5 74t-55.5 33q-45 0 -77 31.5t-32 76.5t32 77t77 32q96 0 96 61t-80 62q-57 0 -93 -57.5t-85 -57.5q-43 0 -75.5 33t-32.5 76q0 57 67 129q86 94 219 94 q125 0 211 -83t86 -196q0 -104 -71 -182q98 -84 98 -203t-95.5 -201.5t-230.5 -82.5q-152 0 -243 88q-78 76 -78 166zM569 94q0 35 19 70l663 1253q41 78 129 78q57 0 100.5 -41t43.5 -104q-1 -33 -19 -68l-663 -1253q-41 -78 -129 -78q-59 0 -101.5 42t-42.5 101zM1176 203 v131l315 495q63 98 141 99q59 0 101.5 -42t42.5 -102v-385h47q41 0 69.5 -28.5t28.5 -69.5q0 -39 -28.5 -68.5t-69.5 -29.5h-47v-92q0 -45 -33 -78t-80 -33h-260v68h37q51 0 51 51v84h-315zM1325 399h166v260z" />
<glyph unicode="&#xbf;" horiz-adv-x="1105" d="M84 35q0 170 117.5 296t290.5 146q6 51 44.5 86t90.5 35q55 0 95 -40t40 -95v-123q0 -55 -40 -95t-95 -40q-231 0 -232 -205q0 -129 80 -222t189 -93q78 0 77 55q0 14 -7 54t-7 63q0 68 48 115.5t116 47.5t116 -47.5t48 -115.5q0 -135 -152 -205q-133 -61 -356 -62 q-193 0 -328 130t-135 315zM449 936q0 74 53 126t125 52t125 -52t53 -126q0 -72 -53.5 -125t-124.5 -53q-72 0 -125 53t-53 125z" />
<glyph unicode="&#xc0;" horiz-adv-x="1503" d="M-39 0v59h35q47 0 97 33t69 80l522 1286q209 0 299 -219l432 -1063q12 -31 12 -55q0 -63 -45 -108.5t-108 -45.5q-102 0 -141 94l-95 232h-733l-49 -121q-10 -27 -10 -49q0 -63 69 -64h117v-59h-471zM320 1897q0 33 16 59q35 59 105 59q33 0 61 -16l375 -217 q63 -37 63 -109q0 -49 -34.5 -82.5t-85.5 -33.5q-35 0 -64 16l-375 217q-61 35 -61 107zM430 600h483l-241 594z" />
<glyph unicode="&#xc1;" horiz-adv-x="1503" d="M-39 0v59h35q47 0 97 33t69 80l522 1286q209 0 299 -219l432 -1063q12 -31 12 -55q0 -63 -45 -108.5t-108 -45.5q-102 0 -141 94l-95 232h-733l-49 -121q-10 -27 -10 -49q0 -63 69 -64h117v-59h-471zM430 600h483l-241 594zM572 1673q0 72 63 109l375 217q29 16 62 16 q69 0 104 -59q16 -27 16 -59q0 -72 -61 -107l-375 -217q-29 -16 -63 -16q-51 0 -86 33.5t-35 82.5z" />
<glyph unicode="&#xc2;" horiz-adv-x="1503" d="M-39 0v59h35q47 0 97 33t69 80l522 1286q209 0 299 -219l432 -1063q12 -31 12 -55q0 -63 -45 -108.5t-108 -45.5q-102 0 -141 94l-95 232h-733l-49 -121q-10 -27 -10 -49q0 -63 69 -64h117v-59h-471zM369 1673q0 72 63 109l322 186l321 -186q63 -37 64 -109 q0 -49 -35 -82.5t-86 -33.5q-35 0 -64 16l-200 117l-201 -117q-29 -16 -64 -16q-51 0 -85.5 33.5t-34.5 82.5zM430 600h483l-241 594z" />
<glyph unicode="&#xc3;" horiz-adv-x="1503" d="M-39 0v59h35q47 0 97 33t69 80l522 1286q209 0 299 -219l432 -1063q12 -31 12 -55q0 -63 -45 -108.5t-108 -45.5q-102 0 -141 94l-95 232h-733l-49 -121q-10 -27 -10 -49q0 -63 69 -64h117v-59h-471zM375 1782v61q0 49 30.5 76t71.5 27t72 -27t31 -76q0 -82 45 -82 q35 0 120 92.5t171 92.5q109 0 179 -65.5t70 -160.5v-61q0 -49 -30.5 -75.5t-71.5 -26.5t-71.5 26.5t-30.5 75.5q0 82 -45 82q-39 0 -82 -47q-74 -84 -80 -90q-57 -47 -129 -47q-102 0 -176 66.5t-74 158.5zM430 600h483l-241 594z" />
<glyph unicode="&#xc4;" horiz-adv-x="1503" d="M-39 0v59h35q47 0 97 33t69 80l522 1286q209 0 299 -219l432 -1063q12 -31 12 -55q0 -63 -45 -108.5t-108 -45.5q-102 0 -141 94l-95 232h-733l-49 -121q-10 -27 -10 -49q0 -63 69 -64h117v-59h-471zM381 1701q0 59 44 103.5t103 44.5t103.5 -44t44.5 -104 q0 -59 -44 -103t-104 -44q-59 0 -103 44t-44 103zM430 600h483l-241 594zM803 1701q0 59 44 103.5t103 44.5t103.5 -44t44.5 -104q0 -59 -44 -103t-104 -44q-59 0 -103 44t-44 103z" />
<glyph unicode="&#xc5;" horiz-adv-x="1503" d="M-39 0v59h35q47 0 97 33t69 80l522 1286q209 0 299 -219l432 -1063q12 -31 12 -55q0 -63 -45 -108.5t-108 -45.5q-102 0 -141 94l-95 232h-733l-49 -121q-10 -27 -10 -49q0 -63 69 -64h117v-59h-471zM430 600h483l-241 594zM457 1851q0 121 88 208t207 87q121 0 208 -87 t87 -208q0 -119 -87 -207t-208 -88q-119 0 -207 88t-88 207zM633 1851q0 -47 36 -83t83 -36t83 36t36 83t-36 83t-83 36t-83 -36t-36 -83z" />
<glyph unicode="&#xc6;" horiz-adv-x="1888" d="M2 0v59h35q47 0 97 33t69 80l522 1286h930q63 0 108 -45t45 -108t-45 -108.5t-108 -45.5h-596l108 -264h457q63 0 108.5 -45t45.5 -109q0 -63 -45 -108t-109 -45h-332l111 -273h264q63 0 108.5 -45t45.5 -108t-45 -108.5t-109 -45.5h-715v59h117q70 0 70 64q0 23 -11 49 l-49 121h-733l-49 -121q-10 -27 -10 -49q0 -63 69 -64h117v-59h-471zM471 600h483l-241 594z" />
<glyph unicode="&#xc7;" horiz-adv-x="1290" d="M86 731q0 317 214 539.5t517 222.5q174 0 334 -84q90 -47 90 -147q0 -70 -49 -118t-117 -48q-43 0 -84 22q-76 43 -174 43q-166 0 -282.5 -126t-116.5 -304t116.5 -304t282.5 -126q92 0 176 45q43 23 84 23q70 0 118 -48.5t48 -117.5q0 -102 -94 -152q-156 -82 -332 -82 q-29 0 -78 4l-20 -20q84 -70 84 -172q0 -119 -109.5 -198t-249.5 -79q-49 0 -75.5 31t-26.5 72t26.5 71.5t75.5 30.5q154 0 154 64q0 39 -61 39q-117 0 -117 84q0 45 45 90l51 51q-195 90 -309 274q-121 190 -121 420z" />
<glyph unicode="&#xc8;" horiz-adv-x="983" d="M41 0v59h35q47 0 79.5 34t32.5 79v1114q0 47 -32.5 80t-79.5 33h-35v59h713q63 0 108 -45t45 -108t-45 -108.5t-108 -45.5h-357v-264h326q63 0 108.5 -45t45.5 -109q0 -63 -45.5 -108t-108.5 -45h-326v-273h369q63 0 108.5 -45t45.5 -108t-45.5 -108.5t-108.5 -45.5h-725 zM131 1897q0 33 16 59q35 59 105 59q33 0 61 -16l375 -217q63 -37 63 -109q0 -49 -34.5 -82.5t-85.5 -33.5q-35 0 -64 16l-375 217q-61 35 -61 107z" />
<glyph unicode="&#xc9;" horiz-adv-x="983" d="M41 0v59h35q47 0 79.5 34t32.5 79v1114q0 47 -32.5 80t-79.5 33h-35v59h713q63 0 108 -45t45 -108t-45 -108.5t-108 -45.5h-357v-264h326q63 0 108.5 -45t45.5 -109q0 -63 -45.5 -108t-108.5 -45h-326v-273h369q63 0 108.5 -45t45.5 -108t-45.5 -108.5t-108.5 -45.5h-725 zM266 1675q0 72 63 109l375 217q29 16 62 16q69 0 104 -59q16 -27 16 -59q0 -72 -61 -107l-375 -217q-29 -16 -63 -16q-51 0 -86 33.5t-35 82.5z" />
<glyph unicode="&#xca;" horiz-adv-x="983" d="M41 0v59h35q47 0 79.5 34t32.5 79v1114q0 47 -32.5 80t-79.5 33h-35v59h713q63 0 108 -45t45 -108t-45 -108.5t-108 -45.5h-357v-264h326q63 0 108.5 -45t45.5 -109q0 -63 -45.5 -108t-108.5 -45h-326v-273h369q63 0 108.5 -45t45.5 -108t-45.5 -108.5t-108.5 -45.5h-725 zM115 1673q0 72 63 109l322 186l321 -186q63 -37 64 -109q0 -49 -35 -82.5t-86 -33.5q-35 0 -64 16l-200 117l-201 -117q-29 -16 -64 -16q-51 0 -85.5 33.5t-34.5 82.5z" />
<glyph unicode="&#xcb;" horiz-adv-x="983" d="M41 0v59h35q47 0 79.5 34t32.5 79v1114q0 47 -32.5 80t-79.5 33h-35v59h713q63 0 108 -45t45 -108t-45 -108.5t-108 -45.5h-357v-264h326q63 0 108.5 -45t45.5 -109q0 -63 -45.5 -108t-108.5 -45h-326v-273h369q63 0 108.5 -45t45.5 -108t-45.5 -108.5t-108.5 -45.5h-725 zM148 1701q0 59 44 103.5t103 44.5t103.5 -44t44.5 -104q0 -59 -44 -103t-104 -44q-59 0 -103 44t-44 103zM570 1701q0 59 44 103.5t103 44.5t103.5 -44t44.5 -104q0 -59 -44 -103t-104 -44q-59 0 -103 44t-44 103z" />
<glyph unicode="&#xcc;" horiz-adv-x="632" d="M-158 1897q0 33 16 59q35 59 105 59q33 0 61 -16l375 -217q63 -37 63 -109q0 -49 -34.5 -82.5t-85.5 -33.5q-35 0 -64 16l-375 217q-61 35 -61 107zM41 0v59h35q47 0 79.5 34t32.5 79v1114q0 47 -32.5 80t-79.5 33h-35v59h289q66 0 112.5 -46t46.5 -112v-1142 q0 -66 -47 -112t-112 -46h-289z" />
<glyph unicode="&#xcd;" horiz-adv-x="632" d="M41 0v59h35q47 0 79.5 34t32.5 79v1114q0 47 -32.5 80t-79.5 33h-35v59h289q66 0 112.5 -46t46.5 -112v-1142q0 -66 -47 -112t-112 -46h-289zM90 1673q0 72 63 109l375 217q29 16 62 16q69 0 104 -59q16 -27 16 -59q0 -72 -61 -107l-375 -217q-29 -16 -63 -16 q-51 0 -86 33.5t-35 82.5z" />
<glyph unicode="&#xce;" horiz-adv-x="632" d="M-71 1673q0 72 63 109l322 186l321 -186q63 -37 64 -109q0 -49 -35 -82.5t-86 -33.5q-35 0 -64 16l-200 117l-201 -117q-29 -16 -64 -16q-51 0 -85.5 33.5t-34.5 82.5zM41 0v59h35q47 0 79.5 34t32.5 79v1114q0 47 -32.5 80t-79.5 33h-35v59h289q66 0 112.5 -46 t46.5 -112v-1142q0 -66 -47 -112t-112 -46h-289z" />
<glyph unicode="&#xcf;" horiz-adv-x="632" d="M-51 1701q0 59 44 103.5t103 44.5t103.5 -44t44.5 -104q0 -59 -44 -103t-104 -44q-59 0 -103 44t-44 103zM41 0v59h35q47 0 79.5 34t32.5 79v1114q0 47 -32.5 80t-79.5 33h-35v59h289q66 0 112.5 -46t46.5 -112v-1142q0 -66 -47 -112t-112 -46h-289zM371 1701 q0 59 44 103.5t103 44.5t103.5 -44t44.5 -104q0 -59 -44 -103t-104 -44q-59 0 -103 44t-44 103z" />
<glyph unicode="&#xd0;" horiz-adv-x="1454" d="M-31 760q0 55 40 95t95 40h144v391q0 47 -33 80t-80 33h-35v59h615q270 0 462.5 -214t192.5 -515t-192.5 -515t-462.5 -214h-615v59h35q47 0 80 34t33 79v453h-144q-55 0 -95 40t-40 95zM457 307h225q135 0 232.5 124t97.5 298t-97.5 298t-232.5 124h-225v-256h131 q55 0 95 -40t40 -95t-40 -95t-95 -40h-131v-318z" />
<glyph unicode="&#xd1;" horiz-adv-x="1490" d="M41 0v59h35q47 0 79.5 34t32.5 79v1114q0 47 -32.5 80t-79.5 33h-35v59h297l678 -833v700q0 68 49 117t117 49t118 -49t48 -117v-1167q0 -88 -41 -139.5t-103 -51.5q-82 0 -151 86l-774 953v-834q0 -45 33.5 -79t78.5 -34h35v-59h-385zM344 1782v61q0 49 30.5 76t71.5 27 t72 -27t31 -76q0 -82 45 -82q35 0 120 92.5t171 92.5q109 0 179 -65.5t70 -160.5v-61q0 -49 -30.5 -75.5t-71.5 -26.5t-71.5 26.5t-30.5 75.5q0 82 -45 82q-39 0 -82 -47q-74 -84 -80 -90q-57 -47 -129 -47q-102 0 -176 66.5t-74 158.5z" />
<glyph unicode="&#xd2;" horiz-adv-x="1605" d="M86 729q0 328 186 539q199 223 531 223t530 -223q186 -211 187 -539q0 -328 -187 -539q-199 -223 -530 -223q-332 0 -531 223q-186 211 -186 539zM336 1897q0 33 16 59q35 59 105 59q33 0 61 -16l375 -217q63 -37 63 -109q0 -49 -34.5 -82.5t-85.5 -33.5q-35 0 -64 16 l-375 217q-61 35 -61 107zM444 729q0 -197 95 -321q98 -133 264 -134q166 0 266 134q92 125 92 321q0 197 -92 322q-100 133 -266 133t-264 -133q-94 -125 -95 -322z" />
<glyph unicode="&#xd3;" horiz-adv-x="1605" d="M86 729q0 328 186 539q199 223 531 223t530 -223q186 -211 187 -539q0 -328 -187 -539q-199 -223 -530 -223q-332 0 -531 223q-186 211 -186 539zM444 729q0 -197 95 -321q98 -133 264 -134q166 0 266 134q92 125 92 321q0 197 -92 322q-100 133 -266 133t-264 -133 q-94 -125 -95 -322zM643 1673q0 72 63 109l375 217q29 16 62 16q69 0 104 -59q16 -27 16 -59q0 -72 -61 -107l-375 -217q-29 -16 -63 -16q-51 0 -86 33.5t-35 82.5z" />
<glyph unicode="&#xd4;" horiz-adv-x="1605" d="M86 729q0 328 186 539q199 223 531 223t530 -223q186 -211 187 -539q0 -328 -187 -539q-199 -223 -530 -223q-332 0 -531 223q-186 211 -186 539zM404 1675q0 72 63 109l322 186l321 -186q63 -37 64 -109q0 -49 -35 -82.5t-86 -33.5q-35 0 -64 16l-200 117l-201 -117 q-29 -16 -64 -16q-51 0 -85.5 33.5t-34.5 82.5zM444 729q0 -197 95 -321q98 -133 264 -134q166 0 266 134q92 125 92 321q0 197 -92 322q-100 133 -266 133t-264 -133q-94 -125 -95 -322z" />
<glyph unicode="&#xd5;" horiz-adv-x="1564" d="M86 729q0 328 186 539q199 223 531 223t530 -223q186 -211 187 -539q0 -328 -187 -539q-199 -223 -530 -223q-332 0 -531 223q-186 211 -186 539zM377 1782v61q0 49 30.5 76t71.5 27t72 -27t31 -76q0 -82 45 -82q35 0 120 92.5t171 92.5q109 0 179 -65.5t70 -160.5v-61 q0 -49 -30.5 -75.5t-71.5 -26.5t-71.5 26.5t-30.5 75.5q0 82 -45 82q-39 0 -82 -47q-74 -84 -80 -90q-57 -47 -129 -47q-102 0 -176 66.5t-74 158.5zM444 729q0 -197 95 -321q98 -133 264 -134q166 0 266 134q92 125 92 321q0 197 -92 322q-100 133 -266 133t-264 -133 q-94 -125 -95 -322z" />
<glyph unicode="&#xd6;" horiz-adv-x="1605" d="M86 729q0 328 186 539q199 223 531 223t530 -223q186 -211 187 -539q0 -328 -187 -539q-199 -223 -530 -223q-332 0 -531 223q-186 211 -186 539zM434 1701q0 59 44 103.5t103 44.5t103.5 -44t44.5 -104q0 -59 -44 -103t-104 -44q-59 0 -103 44t-44 103zM444 729 q0 -197 95 -321q98 -133 264 -134q166 0 266 134q92 125 92 321q0 197 -92 322q-100 133 -266 133t-264 -133q-94 -125 -95 -322zM856 1701q0 59 44 103.5t103 44.5t103.5 -44t44.5 -104q0 -59 -44 -103t-104 -44q-59 0 -103 44t-44 103z" />
<glyph unicode="&#xd7;" horiz-adv-x="1232" d="M195 428q0 57 38 96l193 191l-193 190q-39 39 -38 96q0 57 38.5 96.5t96.5 39.5q57 0 96 -39l190 -193l191 193q39 39 96 39t96 -39t39 -97q0 -57 -39 -96l-192 -190l192 -191q39 -39 39 -96t-38.5 -96t-96.5 -39q-57 0 -96 39l-191 192l-190 -192q-39 -39 -96 -39 t-96 39t-39 96z" />
<glyph unicode="&#xd8;" horiz-adv-x="1564" d="M66 729q0 328 186 539q199 223 530 223q154 0 281 -51l90 170q23 41 70 41q33 0 55 -22.5t22 -55.5q0 -18 -10 -37l-90 -168q143 -102 221 -269t78 -370q0 -328 -186 -539q-199 -223 -531 -223q-160 0 -297 58l-94 -179q-23 -41 -69 -41q-33 0 -55.5 22.5t-22.5 55.5 q0 18 10 37l96 180q-285 211 -284 629zM424 729q0 -194 90 -319l399 749q-57 25 -131 25q-166 0 -264 -133q-94 -125 -94 -322zM635 307q63 -33 147 -33q166 0 267 134q92 125 92 321q-1 207 -103 334z" />
<glyph unicode="&#xd9;" horiz-adv-x="1462" d="M41 1399v59h676v-59h-35q-45 0 -79 -33t-34 -80v-856q0 -96 62.5 -164.5t150.5 -68.5t151.5 68.5t63.5 164.5v895q0 70 48.5 118t117.5 48q70 0 118 -48t48 -118v-846q0 -211 -168 -361.5t-403 -150.5q-236 0 -403 150.5t-167 361.5v807q0 47 -32.5 80t-79.5 33h-35z M356 1897q0 33 16 59q35 59 105 59q33 0 61 -16l375 -217q63 -37 63 -109q0 -49 -34.5 -82.5t-85.5 -33.5q-35 0 -64 16l-375 217q-61 35 -61 107z" />
<glyph unicode="&#xda;" horiz-adv-x="1462" d="M41 1399v59h676v-59h-35q-45 0 -79 -33t-34 -80v-856q0 -96 62.5 -164.5t150.5 -68.5t151.5 68.5t63.5 164.5v895q0 70 48.5 118t117.5 48q70 0 118 -48t48 -118v-846q0 -211 -168 -361.5t-403 -150.5q-236 0 -403 150.5t-167 361.5v807q0 47 -32.5 80t-79.5 33h-35z M688 1673q0 72 63 109l375 217q29 16 62 16q69 0 104 -59q16 -27 16 -59q0 -72 -61 -107l-375 -217q-29 -16 -63 -16q-51 0 -86 33.5t-35 82.5z" />
<glyph unicode="&#xdb;" horiz-adv-x="1462" d="M41 1399v59h676v-59h-35q-45 0 -79 -33t-34 -80v-856q0 -96 62.5 -164.5t150.5 -68.5t151.5 68.5t63.5 164.5v895q0 70 48.5 118t117.5 48q70 0 118 -48t48 -118v-846q0 -211 -168 -361.5t-403 -150.5q-236 0 -403 150.5t-167 361.5v807q0 47 -32.5 80t-79.5 33h-35z M375 1673q0 72 63 109l322 186l321 -186q63 -37 64 -109q0 -49 -35 -82.5t-86 -33.5q-35 0 -64 16l-200 117l-201 -117q-29 -16 -64 -16q-51 0 -85.5 33.5t-34.5 82.5z" />
<glyph unicode="&#xdc;" horiz-adv-x="1462" d="M41 1399v59h676v-59h-35q-45 0 -79 -33t-34 -80v-856q0 -96 62.5 -164.5t150.5 -68.5t151.5 68.5t63.5 164.5v895q0 70 48.5 118t117.5 48q70 0 118 -48t48 -118v-846q0 -211 -168 -361.5t-403 -150.5q-236 0 -403 150.5t-167 361.5v807q0 47 -32.5 80t-79.5 33h-35z M440 1704q0 59 44 103.5t103 44.5t103.5 -44t44.5 -104q0 -59 -44 -103t-104 -44q-59 0 -103 44t-44 103zM862 1704q0 59 44 103.5t103 44.5t103.5 -44t44.5 -104q0 -59 -44 -103t-104 -44q-59 0 -103 44t-44 103z" />
<glyph unicode="&#xdd;" horiz-adv-x="1085" d="M-109 1399v59h746v-59h-117q-70 0 -69 -64q0 -23 10 -49l104 -260l289 399q47 66 127 66q63 0 108.5 -45t45.5 -107q0 -51 -31 -94l-397 -549v-538q0 -66 -47.5 -112t-112.5 -46h-318v59h35q47 0 80 34t33 79v414l-285 700q-45 113 -166 113h-35zM428 1673q0 72 63 109 l375 217q29 16 62 16q69 0 104 -59q16 -27 16 -59q0 -72 -61 -107l-375 -217q-29 -16 -63 -16q-51 0 -86 33.5t-35 82.5z" />
<glyph unicode="&#xde;" horiz-adv-x="1204" d="M41 0v59h35q47 0 79.5 34t32.5 79v1114q0 47 -32.5 80t-79.5 33h-35v59h289q66 0 112.5 -46t46.5 -112v-71h154q205 0 350.5 -145.5t145.5 -350.5t-145.5 -349t-350.5 -144h-246v-240h-356zM397 535h197q84 0 142.5 58t58.5 140q0 84 -58.5 142.5t-142.5 58.5h-197v-399z " />
<glyph unicode="&#xdf;" horiz-adv-x="1236" d="M41 0v59h35q47 0 79.5 34t32.5 79v938q0 158 125 269.5t301 111.5t302 -111.5t126 -269.5q1 -186 -165 -301q125 -55 199.5 -157.5t74.5 -225.5q0 -176 -145.5 -301t-350.5 -125h-32q-61 0 -104.5 43t-43.5 104t43 104.5t105 43.5h34q61 0 105.5 44t44.5 105t-44 105.5 t-106 44.5h-49q-61 0 -104 43t-43 104t43 104.5t104 43.5h6q90 0 155 75.5t65 184.5t-64.5 184.5t-155.5 75.5q-90 0 -153.5 -77t-63.5 -183v-1149h-356z" />
<glyph unicode="&#xe0;" d="M66 524q0 231 143 394t348 163q156 0 285 -102q45 84 141 84q66 0 113 -47t47 -113v-758q0 -66 -47 -111.5t-113 -45.5q-94 0 -141 82q-125 -102 -285 -103q-205 0 -348 163t-143 394zM256 1489q0 33 16 59q35 59 105 59q33 0 61 -16l375 -217q63 -37 63 -109 q0 -49 -34.5 -82.5t-85.5 -33.5q-35 0 -64 16l-375 217q-61 35 -61 107zM379 524q0 -104 65.5 -177t159.5 -73t159.5 73t65.5 177t-65.5 177t-159.5 73t-159.5 -72.5t-65.5 -177.5z" />
<glyph unicode="&#xe1;" d="M66 524q0 231 143 394t348 163q156 0 285 -102q45 84 141 84q66 0 113 -47t47 -113v-758q0 -66 -47 -111.5t-113 -45.5q-94 0 -141 82q-125 -102 -285 -103q-205 0 -348 163t-143 394zM379 524q0 -104 65.5 -177t159.5 -73t159.5 73t65.5 177t-65.5 177t-159.5 73 t-159.5 -72.5t-65.5 -177.5zM422 1265q0 72 63 109l375 217q29 16 62 16q69 0 104 -59q16 -27 16 -59q0 -72 -61 -107l-375 -217q-29 -16 -63 -16q-51 0 -86 33.5t-35 82.5z" />
<glyph unicode="&#xe2;" d="M66 524q0 231 143 394t348 163q156 0 285 -102q45 84 141 84q66 0 113 -47t47 -113v-758q0 -66 -47 -111.5t-113 -45.5q-94 0 -141 82q-125 -102 -285 -103q-205 0 -348 163t-143 394zM248 1263q0 72 63 109l322 186l321 -186q63 -37 64 -109q0 -49 -35 -82.5t-86 -33.5 q-35 0 -64 16l-200 117l-201 -117q-29 -16 -64 -16q-51 0 -85.5 33.5t-34.5 82.5zM379 524q0 -104 65.5 -177t159.5 -73t159.5 73t65.5 177t-65.5 177t-159.5 73t-159.5 -72.5t-65.5 -177.5z" />
<glyph unicode="&#xe3;" d="M66 524q0 231 143 394t348 163q156 0 285 -102q45 84 141 84q66 0 113 -47t47 -113v-758q0 -66 -47 -111.5t-113 -45.5q-94 0 -141 82q-125 -102 -285 -103q-205 0 -348 163t-143 394zM277 1370v61q0 49 30.5 76t71.5 27t72 -27t31 -76q0 -82 45 -82q35 0 120 92.5 t171 92.5q109 0 179 -65.5t70 -160.5v-61q0 -49 -30.5 -75.5t-71.5 -26.5t-71.5 26.5t-30.5 75.5q0 82 -45 82q-39 0 -82 -47q-74 -84 -80 -90q-57 -47 -129 -47q-102 0 -176 66.5t-74 158.5zM379 524q0 -104 65.5 -177t159.5 -73t159.5 73t65.5 177t-65.5 177t-159.5 73 t-159.5 -72.5t-65.5 -177.5z" />
<glyph unicode="&#xe4;" d="M66 524q0 231 143 394t348 163q156 0 285 -102q45 84 141 84q66 0 113 -47t47 -113v-758q0 -66 -47 -111.5t-113 -45.5q-94 0 -141 82q-125 -102 -285 -103q-205 0 -348 163t-143 394zM320 1294q0 59 44 103.5t103 44.5t103.5 -44t44.5 -104q0 -59 -44 -103t-104 -44 q-59 0 -103 44t-44 103zM379 524q0 -104 65.5 -177t159.5 -73t159.5 73t65.5 177t-65.5 177t-159.5 73t-159.5 -72.5t-65.5 -177.5zM742 1294q0 59 44 103.5t103 44.5t103.5 -44t44.5 -104q0 -59 -44 -103t-104 -44q-59 0 -103 44t-44 103z" />
<glyph unicode="&#xe5;" d="M66 524q0 231 143 394t348 163q156 0 285 -102q45 84 141 84q66 0 113 -47t47 -113v-758q0 -66 -47 -111.5t-113 -45.5q-94 0 -141 82q-125 -102 -285 -103q-205 0 -348 163t-143 394zM342 1442q0 121 88 208t207 87q121 0 208 -87t87 -208q0 -119 -87 -207t-208 -88 q-119 0 -207 88t-88 207zM379 524q0 -104 65.5 -177t159.5 -73t159.5 73t65.5 177t-65.5 177t-159.5 73t-159.5 -72.5t-65.5 -177.5zM518 1442q0 -47 36 -83t83 -36t83 36t36 83t-36 83t-83 36t-83 -36t-36 -83z" />
<glyph unicode="&#xe6;" horiz-adv-x="1884" d="M66 524q0 231 143 394t348 163q156 0 285 -102q45 84 141 84q45 0 80 -23q98 41 201 41q221 0 377.5 -162.5t156.5 -394.5v-16h-655q0 -246 180 -246q111 0 205 86q43 41 94 41q55 0 97 -42t42 -97t-45 -98q-190 -184 -452 -185q-107 0 -201 41q-41 -20 -80 -20 q-94 0 -141 82q-125 -102 -285 -103q-205 0 -348 163t-143 394zM379 524q0 -104 65.5 -177t159.5 -73t159.5 73t65.5 177t-65.5 177t-159.5 73t-159.5 -72.5t-65.5 -177.5zM1143 580h295q0 408 -148 407q-147 0 -147 -407z" />
<glyph unicode="&#xe7;" horiz-adv-x="1064" d="M63 524q0 229 159 393t382 164q168 0 293 -69q135 -76 135 -197q0 -68 -48 -116t-116 -48t-115.5 48.5t-47.5 115.5q0 23 7 63t7 54q0 55 -78 55q-109 0 -188.5 -121t-79.5 -301q0 -141 80 -223q66 -68 151 -68q66 0 138.5 29t97.5 29q59 0 101 -42t42 -102 q0 -86 -111 -149q-98 -57 -221 -70l-22 -22q84 -70 84 -172q0 -119 -109.5 -198t-249.5 -79q-49 0 -75.5 31t-26.5 72t26.5 71.5t75.5 30.5q154 0 154 64q0 39 -62 38q-117 0 -116 84q0 45 45 91l28 28q-152 61 -246 202.5t-94 313.5z" />
<glyph unicode="&#xe8;" horiz-adv-x="1200" d="M66 524q0 231 156.5 394t377.5 163t378 -162.5t157 -394.5v-16h-656q0 -246 180 -246q109 0 195 78q56 49 109 49q55 0 95 -40t40 -95q0 -59 -45 -102q-193 -184 -453 -185q-221 0 -377.5 163t-156.5 394zM203 1489q0 33 16 59q35 59 105 59q33 0 61 -16l375 -217 q63 -37 63 -109q0 -49 -34.5 -82.5t-85.5 -33.5q-35 0 -64 16l-375 217q-61 35 -61 107zM481 580h293q0 408 -147 407q-145 0 -146 -407z" />
<glyph unicode="&#xe9;" horiz-adv-x="1200" d="M66 524q0 231 156.5 394t377.5 163t378 -162.5t157 -394.5v-16h-656q0 -246 180 -246q109 0 195 78q56 49 109 49q55 0 95 -40t40 -95q0 -59 -45 -102q-193 -184 -453 -185q-221 0 -377.5 163t-156.5 394zM377 1265q0 72 63 109l375 217q29 16 62 16q69 0 104 -59 q16 -27 16 -59q0 -72 -61 -107l-375 -217q-29 -16 -63 -16q-51 0 -86 33.5t-35 82.5zM481 580h293q0 408 -147 407q-145 0 -146 -407z" />
<glyph unicode="&#xea;" horiz-adv-x="1200" d="M66 524q0 231 156.5 394t377.5 163t378 -162.5t157 -394.5v-16h-656q0 -246 180 -246q109 0 195 78q56 49 109 49q55 0 95 -40t40 -95q0 -59 -45 -102q-193 -184 -453 -185q-221 0 -377.5 163t-156.5 394zM216 1263q0 72 63 109l322 186l321 -186q63 -37 64 -109 q0 -49 -35 -82.5t-86 -33.5q-35 0 -64 16l-200 117l-201 -117q-29 -16 -64 -16q-51 0 -85.5 33.5t-34.5 82.5zM481 580h293q0 408 -147 407q-145 0 -146 -407z" />
<glyph unicode="&#xeb;" horiz-adv-x="1200" d="M66 524q0 231 156.5 394t377.5 163t378 -162.5t157 -394.5v-16h-656q0 -246 180 -246q109 0 195 78q56 49 109 49q55 0 95 -40t40 -95q0 -59 -45 -102q-193 -184 -453 -185q-221 0 -377.5 163t-156.5 394zM254 1294q0 59 44 103.5t103 44.5t103.5 -44t44.5 -104 q0 -59 -44 -103t-104 -44q-59 0 -103 44t-44 103zM481 580h293q0 408 -147 407q-145 0 -146 -407zM676 1294q0 59 44 103.5t103 44.5t103.5 -44t44.5 -104q0 -59 -44 -103t-104 -44q-59 0 -103 44t-44 103z" />
<glyph unicode="&#xec;" horiz-adv-x="729" d="M-70 1489q0 33 16 59q35 59 105 59q33 0 61 -16l375 -217q63 -37 63 -109q0 -49 -34.5 -82.5t-85.5 -33.5q-35 0 -64 16l-375 217q-61 35 -61 107zM41 0v59h35q47 0 79.5 34t32.5 79v672q0 47 -32.5 79.5t-79.5 32.5h-35v60l514 33l-14 -205v-672q0 -45 33.5 -79 t78.5 -34h35v-59h-647z" />
<glyph unicode="&#xed;" horiz-adv-x="729" d="M41 0v59h35q47 0 79.5 34t32.5 79v672q0 47 -32.5 79.5t-79.5 32.5h-35v60l514 33l-14 -205v-672q0 -45 33.5 -79t78.5 -34h35v-59h-647zM148 1265q0 72 63 109l375 217q29 16 62 16q69 0 104 -59q16 -27 16 -59q0 -72 -61 -107l-375 -217q-29 -16 -63 -16 q-51 0 -86 33.5t-35 82.5z" />
<glyph unicode="&#xee;" horiz-adv-x="729" d="M-32 1263q0 72 63 109l322 186l321 -186q63 -37 64 -109q0 -49 -35 -82.5t-86 -33.5q-35 0 -64 16l-200 117l-201 -117q-29 -16 -64 -16q-51 0 -85.5 33.5t-34.5 82.5zM41 0v59h35q47 0 79.5 34t32.5 79v672q0 47 -32.5 79.5t-79.5 32.5h-35v60l514 33l-14 -205v-672 q0 -45 33.5 -79t78.5 -34h35v-59h-647z" />
<glyph unicode="&#xef;" horiz-adv-x="729" d="M-18 1294q0 59 44 103.5t103 44.5t103.5 -44t44.5 -104q0 -59 -44 -103t-104 -44q-59 0 -103 44t-44 103zM41 0v59h35q47 0 79.5 34t32.5 79v672q0 47 -32.5 79.5t-79.5 32.5h-35v60l514 33l-14 -205v-672q0 -45 33.5 -79t78.5 -34h35v-59h-647zM404 1294q0 59 44 103.5 t103 44.5t103.5 -44t44.5 -104q0 -59 -44 -103t-104 -44q-59 0 -103 44t-44 103z" />
<glyph unicode="&#xf0;" d="M90 461q0 180 124 317t312 174l-125 125l-79 -82q-39 -39 -95 -39q-57 0 -96 39t-39 97q0 55 39 94l80 80l-31 32q-39 41 -39 99q0 55 39 94t99 39q57 0 94 -39l30 -33l99 98q39 39 94 39q57 0 96 -38.5t39 -96.5q0 -55 -39 -94l-98 -96l422 -422q184 -184 184 -387 q0 -209 -163 -356.5t-392 -147.5t-392 147.5t-163 356.5zM463 444q0 -166 45 -270q49 -111 137 -111t137 111q45 104 45 270t-47 273.5t-135 107.5t-135 -107.5t-47 -273.5z" />
<glyph unicode="&#xf1;" horiz-adv-x="1179" d="M20 0v59h35q47 0 80 34t33 79v672q0 47 -33 79.5t-80 32.5h-35v60h205q84 0 131 -68q121 133 310 133q162 0 276.5 -101t114.5 -243v-590q0 -66 -47 -112.5t-113 -46.5t-113 47t-47 112v531q0 53 -31.5 92t-76.5 39t-77 -39t-32 -92v-506q0 -45 34 -79t79 -34h35v-59 h-648zM156 1370v61q0 49 30.5 76t71.5 27t72 -27t31 -76q0 -82 45 -82q35 0 120 92.5t171 92.5q109 0 179 -65.5t70 -160.5v-61q0 -49 -30.5 -75.5t-71.5 -26.5t-71.5 26.5t-30.5 75.5q0 82 -45 82q-39 0 -82 -47q-74 -84 -80 -90q-57 -47 -129 -47q-102 0 -176 66.5 t-74 158.5z" />
<glyph unicode="&#xf2;" horiz-adv-x="1212" d="M66 524q0 236 149 396.5t391 160.5t391.5 -160.5t149.5 -396.5t-148 -393q-152 -164 -393 -164q-242 0 -393 164q-147 158 -147 393zM170 1489q0 33 16 59q35 59 105 59q33 0 61 -16l375 -217q63 -37 63 -109q0 -49 -34.5 -82.5t-85.5 -33.5q-35 0 -64 16l-375 217 q-61 35 -61 107zM391 524q0 -106 57.5 -178t157.5 -72t157.5 72t57.5 178t-57.5 178t-157.5 72t-157.5 -71.5t-57.5 -178.5z" />
<glyph unicode="&#xf3;" horiz-adv-x="1212" d="M66 524q0 236 149 396.5t391 160.5t391.5 -160.5t149.5 -396.5t-148 -393q-152 -164 -393 -164q-242 0 -393 164q-147 158 -147 393zM391 524q0 -106 57.5 -178t157.5 -72t157.5 72t57.5 178t-57.5 178t-157.5 72t-157.5 -71.5t-57.5 -178.5zM414 1265q0 72 63 109 l375 217q29 16 62 16q69 0 104 -59q16 -27 16 -59q0 -72 -61 -107l-375 -217q-29 -16 -63 -16q-51 0 -86 33.5t-35 82.5z" />
<glyph unicode="&#xf4;" horiz-adv-x="1212" d="M66 524q0 236 149 396.5t391 160.5t391.5 -160.5t149.5 -396.5t-148 -393q-152 -164 -393 -164q-242 0 -393 164q-147 158 -147 393zM207 1263q0 72 63 109l322 186l321 -186q63 -37 64 -109q0 -49 -35 -82.5t-86 -33.5q-35 0 -64 16l-200 117l-201 -117q-29 -16 -64 -16 q-51 0 -85.5 33.5t-34.5 82.5zM391 524q0 -106 57.5 -178t157.5 -72t157.5 72t57.5 178t-57.5 178t-157.5 72t-157.5 -71.5t-57.5 -178.5z" />
<glyph unicode="&#xf5;" horiz-adv-x="1212" d="M66 524q0 236 149 396.5t391 160.5t391.5 -160.5t149.5 -396.5t-148 -393q-152 -164 -393 -164q-242 0 -393 164q-147 158 -147 393zM203 1370v61q0 49 30.5 76t71.5 27t72 -27t31 -76q0 -82 45 -82q35 0 120 92.5t171 92.5q109 0 179 -65.5t70 -160.5v-61 q0 -49 -30.5 -75.5t-71.5 -26.5t-71.5 26.5t-30.5 75.5q0 82 -45 82q-39 0 -82 -47q-74 -84 -80 -90q-57 -47 -129 -47q-102 0 -176 66.5t-74 158.5zM391 524q0 -106 57.5 -178t157.5 -72t157.5 72t57.5 178t-57.5 178t-157.5 72t-157.5 -71.5t-57.5 -178.5z" />
<glyph unicode="&#xf6;" horiz-adv-x="1212" d="M66 524q0 236 149 396.5t391 160.5t391.5 -160.5t149.5 -396.5t-148 -393q-152 -164 -393 -164q-242 0 -393 164q-147 158 -147 393zM252 1294q0 59 44 103.5t103 44.5t103.5 -44t44.5 -104q0 -59 -44 -103t-104 -44q-59 0 -103 44t-44 103zM391 524q0 -106 57.5 -178 t157.5 -72t157.5 72t57.5 178t-57.5 178t-157.5 72t-157.5 -71.5t-57.5 -178.5zM674 1294q0 59 44 103.5t103 44.5t103.5 -44t44.5 -104q0 -59 -44 -103t-104 -44q-59 0 -103 44t-44 103z" />
<glyph unicode="&#xf7;" horiz-adv-x="0" />
<glyph unicode="&#xf8;" horiz-adv-x="1208" d="M63 524q0 236 149.5 396.5t391.5 160.5q98 0 184 -28l82 153q23 41 70 41q33 0 55.5 -22.5t22.5 -55.5q0 -18 -10 -36q-18 -33 -80 -152q217 -162 217 -457q0 -236 -148 -393q-152 -164 -393 -164q-102 0 -196 33l-82 -154q-23 -41 -70 -41q-33 0 -55.5 22.5t-22.5 55.5 q0 18 10 37l82 156q-207 162 -207 448zM389 524q0 -92 39 -151l211 399q-10 2 -35 2q-100 0 -157.5 -71.5t-57.5 -178.5zM555 281q23 -6 49 -7q100 0 157.5 72t57.5 178q0 98 -47 164z" />
<glyph unicode="&#xf9;" horiz-adv-x="1179" d="M20 956v60l424 33l-14 -205v-443q0 -63 45 -108t109 -45q63 0 108 45t45 108v521q0 66 47 112.5t113 46.5t113 -47t47 -112v-555q0 -166 -130 -283t-315 -117q-184 0 -314 117t-130 283v477q0 47 -33 79.5t-80 32.5h-35zM121 1487q0 33 16 59q35 59 105 59q33 0 61 -16 l375 -217q63 -37 63 -109q0 -49 -34.5 -82.5t-85.5 -33.5q-35 0 -64 16l-375 217q-61 35 -61 107z" />
<glyph unicode="&#xfa;" horiz-adv-x="1179" d="M20 956v60l424 33l-14 -205v-443q0 -63 45 -108t109 -45q63 0 108 45t45 108v521q0 66 47 112.5t113 46.5t113 -47t47 -112v-555q0 -166 -130 -283t-315 -117q-184 0 -314 117t-130 283v477q0 47 -33 79.5t-80 32.5h-35zM434 1263q0 72 63 109l375 217q29 16 62 16 q69 0 104 -59q16 -27 16 -59q0 -72 -61 -107l-375 -217q-29 -16 -63 -16q-51 0 -86 33.5t-35 82.5z" />
<glyph unicode="&#xfb;" horiz-adv-x="1179" d="M20 956v60l424 33l-14 -205v-443q0 -63 45 -108t109 -45q63 0 108 45t45 108v521q0 66 47 112.5t113 46.5t113 -47t47 -112v-555q0 -166 -130 -283t-315 -117q-184 0 -314 117t-130 283v477q0 47 -33 79.5t-80 32.5h-35zM193 1263q0 72 63 109l322 186l321 -186 q63 -37 64 -109q0 -49 -35 -82.5t-86 -33.5q-35 0 -64 16l-200 117l-201 -117q-29 -16 -64 -16q-51 0 -85.5 33.5t-34.5 82.5z" />
<glyph unicode="&#xfc;" horiz-adv-x="1179" d="M20 956v60l424 33l-14 -205v-443q0 -63 45 -108t109 -45q63 0 108 45t45 108v521q0 66 47 112.5t113 46.5t113 -47t47 -112v-555q0 -166 -130 -283t-315 -117q-184 0 -314 117t-130 283v477q0 47 -33 79.5t-80 32.5h-35zM240 1294q0 59 44 103.5t103 44.5t103.5 -44 t44.5 -104q0 -59 -44 -103t-104 -44q-59 0 -103 44t-44 103zM662 1294q0 59 44 103.5t103 44.5t103.5 -44t44.5 -104q0 -59 -44 -103t-104 -44q-59 0 -103 44t-44 103z" />
<glyph unicode="&#xfd;" horiz-adv-x="1085" d="M-86 989v60h655v-60h-34q-102 0 -103 -74q0 -18 10 -38l176 -385l216 497q39 92 131 92q57 0 98 -41t41 -98q-1 -27 -19 -70l-526 -1218q-37 -84 -127 -84q-55 0 -97 40t-42 99q-2 20 12 55l137 318l-360 795q-51 113 -133 112h-35zM326 1269q0 72 63 109l375 217 q29 16 62 16q69 0 104 -59q16 -27 16 -59q0 -72 -61 -107l-375 -217q-29 -16 -63 -16q-51 0 -86 33.5t-35 82.5z" />
<glyph unicode="&#xfe;" horiz-adv-x="1202" d="M20 -350h35q47 0 80 32.5t33 79.5v1635q0 66 47 112.5t113 46.5t112.5 -47t46.5 -112v-344q76 29 158 28q205 0 348.5 -162.5t143.5 -394.5q0 -231 -143.5 -394t-348.5 -163q-141 0 -260 84v-303q0 -66 -47 -112t-113 -46h-205v60zM373 524q0 -104 65.5 -177t159.5 -73 t159.5 73t65.5 177t-65.5 177t-159.5 73t-159.5 -72.5t-65.5 -177.5z" />
<glyph unicode="&#xff;" horiz-adv-x="1085" d="M-86 989v60h655v-60h-34q-102 0 -103 -74q0 -18 10 -38l176 -385l216 497q39 92 131 92q57 0 98 -41t41 -98q-1 -27 -19 -70l-526 -1218q-37 -84 -127 -84q-55 0 -97 40t-42 99q-2 20 12 55l137 318l-360 795q-51 113 -133 112h-35zM240 1294q0 59 44 103.5t103 44.5 t103.5 -44t44.5 -104q0 -59 -44 -103t-104 -44q-59 0 -103 44t-44 103zM662 1294q0 59 44 103.5t103 44.5t103.5 -44t44.5 -104q0 -59 -44 -103t-104 -44q-59 0 -103 44t-44 103z" />
<glyph unicode="&#x152;" horiz-adv-x="2068" d="M66 729q0 328 186 539q199 223 530 223q119 0 230 -33h803q63 0 108 -45t45 -108t-45 -108.5t-108 -45.5h-420q68 -119 92 -264h297q72 0 112.5 -46t40.5 -108q0 -61 -41 -107t-112 -46h-297q-20 -143 -92 -273h432q63 0 108 -45t45 -108t-45 -108.5t-108 -45.5h-813 q-115 -33 -232 -33q-332 0 -530 223q-186 211 -186 539zM424 729q0 -197 94 -321q98 -133 264 -134q166 0 267 134q92 125 92 321q0 197 -92 322q-101 133 -267 133t-264 -133q-94 -125 -94 -322z" />
<glyph unicode="&#x153;" horiz-adv-x="1875" d="M63 524q0 236 149.5 396.5t391.5 160.5q195 0 338 -112q145 113 324 112q221 0 377.5 -162.5t156.5 -394.5v-16h-655q0 -246 180 -246q111 0 205 86q43 41 94 41q55 0 97 -42t42 -97t-45 -98q-190 -184 -452 -185q-179 0 -324 113q-143 -113 -338 -113q-242 0 -393 164 q-147 158 -148 393zM389 524q0 -106 57.5 -178t157.5 -72t157.5 72t57.5 178t-57.5 178t-157.5 72t-157.5 -71.5t-57.5 -178.5zM1147 580h293q0 408 -148 407q-145 0 -145 -407z" />
<glyph unicode="&#x178;" horiz-adv-x="1085" d="M-109 1399v59h746v-59h-117q-70 0 -69 -64q0 -23 10 -49l104 -260l289 399q47 66 127 66q63 0 108.5 -45t45.5 -107q0 -51 -31 -94l-397 -549v-538q0 -66 -47.5 -112t-112.5 -46h-318v59h35q47 0 80 34t33 79v414l-285 700q-45 113 -166 113h-35zM268 1701q0 59 44 103.5 t103 44.5t103.5 -44t44.5 -104q0 -59 -44 -103t-104 -44q-59 0 -103 44t-44 103zM690 1701q0 59 44 103.5t103 44.5t103.5 -44t44.5 -104q0 -59 -44 -103t-104 -44q-59 0 -103 44t-44 103z" />
<glyph unicode="&#x2c6;" horiz-adv-x="819" d="M23 1300q0 72 63 109l322 186l321 -186q63 -37 64 -109q0 -49 -35 -82.5t-86 -33.5q-35 0 -64 16l-200 117l-201 -117q-29 -16 -64 -16q-51 0 -85.5 33.5t-34.5 82.5z" />
<glyph unicode="&#x2dc;" horiz-adv-x="897" d="M-4 1399v61q0 49 30.5 76t71.5 27t72 -27t31 -76q0 -82 45 -82q35 0 120 92.5t171 92.5q109 0 179 -65.5t70 -160.5v-61q0 -49 -30.5 -75.5t-71.5 -26.5t-71.5 26.5t-30.5 75.5q0 82 -45 82q-39 0 -82 -47q-74 -84 -80 -90q-57 -47 -129 -47q-102 0 -176 66.5t-74 158.5z " />
<glyph unicode="&#x2000;" horiz-adv-x="1073" />
<glyph unicode="&#x2001;" horiz-adv-x="2146" />
<glyph unicode="&#x2002;" horiz-adv-x="1073" />
<glyph unicode="&#x2003;" horiz-adv-x="2146" />
<glyph unicode="&#x2004;" horiz-adv-x="715" />
<glyph unicode="&#x2005;" horiz-adv-x="536" />
<glyph unicode="&#x2006;" horiz-adv-x="357" />
<glyph unicode="&#x2007;" horiz-adv-x="357" />
<glyph unicode="&#x2008;" horiz-adv-x="268" />
<glyph unicode="&#x2009;" horiz-adv-x="429" />
<glyph unicode="&#x200a;" horiz-adv-x="119" />
<glyph unicode="&#x2010;" horiz-adv-x="905" d="M76 715q0 55 40 95t95 40h483q55 0 95 -40t40 -95t-39.5 -95t-95.5 -40h-483q-55 0 -95 39.5t-40 95.5z" />
<glyph unicode="&#x2011;" horiz-adv-x="905" d="M76 715q0 55 40 95t95 40h483q55 0 95 -40t40 -95t-39.5 -95t-95.5 -40h-483q-55 0 -95 39.5t-40 95.5z" />
<glyph unicode="&#x2012;" horiz-adv-x="905" d="M76 715q0 55 40 95t95 40h483q55 0 95 -40t40 -95t-39.5 -95t-95.5 -40h-483q-55 0 -95 39.5t-40 95.5z" />
<glyph unicode="&#x2013;" horiz-adv-x="1400" d="M0 715q0 55 40 95t95 40h1131q55 0 95 -40t40 -95t-40 -95t-95 -40h-1131q-55 0 -95 39.5t-40 95.5z" />
<glyph unicode="&#x2014;" horiz-adv-x="1810" d="M0 715q0 55 40 95t95 40h1540q55 0 95 -40t40 -95t-39.5 -95t-95.5 -40h-1540q-55 0 -95 39.5t-40 95.5z" />
<glyph unicode="&#x2018;" horiz-adv-x="614" d="M104 1421q0 80 68 119q31 18 68 19q78 0 116 -68l113 -197q-76 -72 -76 -153q0 -80 68 -213l-72 -35l-266 463q-18 31 -19 65z" />
<glyph unicode="&#x2019;" horiz-adv-x="614" d="M68 1294l112 197q39 68 117 68q37 0 68 -19q68 -39 67 -119q0 -35 -18 -65l-267 -463l-71 35q68 133 67 213q0 82 -75 153z" />
<glyph unicode="&#x201a;" horiz-adv-x="614" d="M88 63l113 197q39 68 116 68q37 0 68 -19q68 -39 68 -119q0 -35 -19 -65l-266 -463l-72 35q68 133 68 213q0 82 -76 153z" />
<glyph unicode="&#x201c;" horiz-adv-x="1024" d="M70 1421q0 80 67 119q31 18 68 19q78 0 117 -68l112 -197q-76 -72 -76 -153q0 -80 68 -213l-72 -35l-266 463q-18 31 -18 65zM557 1421q0 80 68 119q31 18 67 19q78 0 117 -68l113 -197q-76 -72 -76 -153q0 -80 67 -213l-71 -35l-267 463q-18 31 -18 65z" />
<glyph unicode="&#x201d;" horiz-adv-x="1024" d="M68 1294l112 197q39 68 117 68q37 0 68 -19q68 -39 67 -119q0 -35 -18 -65l-267 -463l-71 35q68 133 67 213q0 82 -75 153zM555 1294l113 197q39 68 116 68q37 0 68 -19q68 -39 68 -119q0 -35 -19 -65l-266 -463l-72 35q68 133 68 213q0 82 -76 153z" />
<glyph unicode="&#x201e;" horiz-adv-x="1024" d="M88 63l113 197q39 68 116 68q37 0 68 -19q68 -39 68 -119q0 -35 -19 -65l-266 -463l-72 35q68 133 68 213q0 82 -76 153zM575 63l113 197q39 68 117 68q37 0 67 -19q68 -39 68 -119q0 -35 -18 -65l-267 -463l-71 35q68 133 67 213q0 82 -76 153z" />
<glyph unicode="&#x2022;" horiz-adv-x="778" d="M123 715q0 109 78.5 187.5t187.5 78.5t187.5 -79t78.5 -187q0 -109 -78.5 -187.5t-187.5 -78.5t-187.5 78.5t-78.5 187.5z" />
<glyph unicode="&#x2026;" horiz-adv-x="1843" d="M106 145q0 72 53.5 125.5t125.5 53.5t125 -53.5t53 -125.5q0 -74 -53.5 -126t-124.5 -52q-72 0 -125.5 52t-53.5 126zM721 145q0 72 53 125.5t125 53.5t125 -53.5t53 -125.5q0 -74 -53 -126t-125 -52t-125 52t-53 126zM1335 145q0 72 53.5 125.5t124.5 53.5 q72 0 125.5 -53.5t53.5 -125.5q0 -74 -53.5 -126t-125.5 -52t-125 52t-53 126z" />
<glyph unicode="&#x202f;" horiz-adv-x="429" />
<glyph unicode="&#x2039;" horiz-adv-x="839" d="M176 715l223 385q45 78 131 78q37 0 70 -19q72 -41 72 -129q0 -41 -21 -76l-141 -239l141 -242q20 -35 21 -76q0 -86 -72 -127q-33 -18 -70 -18q-88 0 -131 76z" />
<glyph unicode="&#x203a;" horiz-adv-x="839" d="M162 397q0 41 20 76l142 242l-142 239q-20 35 -20 76q0 88 71 129q33 18 70 19q86 0 131 -78l223 -385l-223 -387q-43 -76 -131 -76q-37 0 -70 18q-72 41 -71 127z" />
<glyph unicode="&#x205f;" horiz-adv-x="536" />
<glyph unicode="&#x2122;" horiz-adv-x="1982" d="M84 1194v264h528q43 0 76 -31.5t33 -76.5q0 -43 -33 -76t-76 -33h-106v-579q0 -45 -34 -78t-79 -33h-198v70h36q51 0 52 51v717q-49 -6 -83 -45t-34 -91v-59h-82zM823 551v70h37q51 0 51 51v667q0 51 -51 52h-37v67h330l178 -471l154 404q33 84 112 84q86 0 109 -101 l164 -704q2 -7 2 -23q0 -51 -35 -84t-82 -33q-92 0 -113 91l-75 329l-127 -332q-35 -90 -109 -90q-72 0 -106 90l-228 599v-545q0 -51 52 -51h36v-70h-262z" />
<glyph unicode="&#x25fc;" horiz-adv-x="1085" d="M0 0v1085h1085v-1085h-1085z" />
</font>
</defs>
</svg>
